<?xml version="1.0" encoding="utf-8"?>
<!-- Generator: Adobe Illustrator 27.5.0, SVG Export Plug-In . SVG Version: 6.00 Build 0)  -->
<svg version="1.1" id="_x3C_Layer_x3E_" xmlns="http://www.w3.org/2000/svg" xmlns:xlink="http://www.w3.org/1999/xlink" x="0px"
	 y="0px" viewBox="0 0 2760 1840" style="enable-background:new 0 0 2760 1840;" xml:space="preserve">
<rect style="fill:#FFFFFF;" width="2760" height="1840"/>
<g>
	<g>
		<path style="fill:#E08B65;" d="M2173.521,1009.509c-3.044,0-6.313-2.669-7.871-6.721c-1.863-4.853-0.575-9.879,2.874-11.204
			c3.443-1.323,7.77,1.545,9.636,6.398l0,0c1.863,4.853,0.575,9.879-2.874,11.203
			C2174.717,1009.404,2174.123,1009.509,2173.521,1009.509z M2170.3,993.029c-0.394,0-0.776,0.067-1.142,0.208
			c-2.537,0.975-3.369,4.975-1.855,8.917c1.488,3.874,4.846,6.336,7.348,5.379c2.494-0.958,3.345-5.041,1.855-8.916l0,0
			C2175.234,995.31,2172.596,993.029,2170.3,993.029z"/>
	</g>
	<g>
		<path style="fill:#DEEBE9;" d="M2660,479.316v822.749c0,106.785-97.817,185.445-230.758,221.071
			c-69.093,18.517-154.825,24.477-255.201,28.021c-173.726,5.851-401.723-4.841-589.805-13.844
			c-157.303-7.501-219.604-14.387-613.556-6.645c-132.942,2.631-275.226,6.392-382.38,8.462
			c-139.537,2.735-167.277,3.531-218.606-7.01c-137.763-28.251-238.568-121.025-238.568-230.057V479.316
			c0-131.933,147.92-246.637,329.695-238.875c168.79,7.199,417.078,35.731,675.896,18.263
			c307.823-20.78,892.101-38.426,1193.586-18.263C2511.621,252.561,2660,347.384,2660,479.316z"/>
	</g>
	<g>
		<ellipse style="fill:#BED5DC;" cx="1410.16" cy="1313.636" rx="1179.715" ry="80.463"/>
	</g>
	<g>
		<g>
			<g>
				<path style="fill:#F7B686;" d="M2218.264,979.498L2218.264,979.498c-2.277,0.426-3.798,2.666-3.378,4.978l6.517,35.884
					c0.419,2.313,2.627,3.854,4.904,3.429l0,0c2.278-0.427,3.799-2.666,3.378-4.978l-6.517-35.884
					C2222.749,980.614,2220.541,979.071,2218.264,979.498z"/>
			</g>
			<g>
				<path style="fill:#F7B686;" d="M2228.865,977.515L2228.865,977.515c-2.277,0.426-3.798,2.666-3.378,4.978l7.288,40.131
					c0.42,2.313,2.627,3.856,4.905,3.43l0,0c2.277-0.427,3.797-2.667,3.378-4.979l-7.288-40.131
					C2233.351,978.631,2231.144,977.089,2228.865,977.515z"/>
			</g>
			<g>
				<path style="fill:#F7B686;" d="M2227.923,956.096l-0.983,1.146c-1.84,2.143-1.615,5.425,0.496,7.291l20.574,18.184
					c2.111,1.865,5.344,1.639,7.184-0.504l0.983-1.148c1.839-2.143,1.616-5.424-0.496-7.29l-20.574-18.183
					C2232.994,953.725,2229.762,953.952,2227.923,956.096z"/>
			</g>
			<g>
				<path style="fill:#F7B686;" d="M2239.468,975.531L2239.468,975.531c-2.277,0.426-3.798,2.666-3.378,4.977l5.842,32.169
					c0.419,2.313,2.627,3.856,4.904,3.428l0,0c2.278-0.426,3.799-2.665,3.378-4.977l-5.842-32.169
					C2243.953,976.648,2241.745,975.104,2239.468,975.531z"/>
			</g>
			<g>
				<path style="fill:#F7B686;" d="M2207.358,960.406c0,0-8.224,22.957,0.817,37.688c3.131,5.099,34.184-1.61,35.962-8.094
					s-4.254-27.818-4.254-27.818L2207.358,960.406z"/>
			</g>
			<g>
				<path style="fill:#F7B686;" d="M2207.729,981.435L2207.729,981.435c-2.273,0.426-3.789,2.661-3.371,4.968l5.829,32.103
					c0.42,2.307,2.622,3.846,4.896,3.421l0,0c2.272-0.425,3.79-2.66,3.371-4.968l-5.83-32.102
					C2212.205,982.55,2210.002,981.01,2207.729,981.435z"/>
			</g>
		</g>
		<g>
			<g>
				<path style="fill:#F7B686;" d="M2246.259,965.252c4.249-47.477,13.996-115.353,36.306-169.108
					c5.17-12.456,7.322-17.134,11.355-23.934c3.244-5.473-2.565-17.501-11.73-23.237c-8.6-5.382-21.992-4.5-24.11-1.836
					c-3.603,4.531-7.447,13.213-13.43,26.998c-20.788,47.9-33.244,109.775-38.29,189.55L2246.259,965.252z"/>
			</g>
		</g>
		<g>
			<path style="fill:#2F1A31;" d="M2304.098,1274.771c0,0-0.34,13.769-9.519,17.652s-35.776,7.389-25.837,16.24
				c5.702,5.08,32.576,1.798,40.164,1.797c7.588,0,14.712,3.356,20.351-1.798c6.202-5.671-0.001-33.893-0.001-33.893
				s-6.548,3.463-12.437,3.308C2308.334,1277.854,2304.098,1274.771,2304.098,1274.771z"/>
		</g>
		<g>
			<path style="fill:#2F1A31;" d="M2409.514,1274.768c0,0-0.339,13.769-9.519,17.652c-9.179,3.884-35.775,7.389-25.837,16.24
				c5.702,5.08,32.577,1.798,40.164,1.797c7.589,0,14.712,3.357,20.351-1.798c6.203-5.671-0.001-33.893-0.001-33.893
				s-6.547,3.462-12.436,3.308C2413.751,1277.851,2409.514,1274.768,2409.514,1274.768z"/>
		</g>
		<g>
			<path style="fill:#6F4975;" d="M2235.873,897.331c0,0-1.697,57.632,16.428,168.19c13.084,79.815,28.53,160.244,36.108,198.802
				c2.711,13.792,14.141,23.878,27.686,24.429l7.279,0.297c14.646,0.596,26.533-12.173,25.464-27.354l-18.388-260.864l-4.533-85.859
				L2235.873,897.331z"/>
		</g>
		<g>
			<path style="fill:#2F1A31;" d="M2401.662,948.049c-0.836,7.014-39.915,6.162-87.763,0.015
				c-47.847-6.146-85.09-16.667-84.254-23.681c0.835-7.016,39.433-7.868,87.28-1.721
				C2364.773,928.809,2402.497,941.033,2401.662,948.049z"/>
		</g>
		<g>
			<path style="fill:#6F4975;" d="M2290.807,938.494l102.151,333.047c4.275,13.94,16.642,23.494,30.728,23.738l6.141,0.105
				c14.497,0.252,25.578-13.354,22.936-28.156l-55.88-312.941c-0.812-3.72-3.517-6.678-7.052-7.712
				C2370.671,940.967,2288.926,924.721,2290.807,938.494z"/>
		</g>
		<g>
			<path style="fill:#96A7E2;" d="M2385.686,756.299c0,0-13.592-38.811-62.008-37.045c-48.417,1.766-84.976,66.341-94.032,205.129
				c0,0,79.282-17.646,172.157,23.519C2401.803,947.901,2406.952,812.868,2385.686,756.299z"/>
		</g>
		<g>
			<path style="fill:#96A7E2;" d="M2427.257,740.471l-41.869,35.775c0,0-88.169,8.952-111.574,4.643
				c-23.405-4.31-27.048-21.776-27.048-21.776s22.266-30.997,64.637-38.695c3.98-0.731,7.991-0.85,12.273-1.161
				c7.186-0.517,12.015,0.206,19.1,0.15C2408.644,718.868,2427.257,740.471,2427.257,740.471z"/>
		</g>
		<g>
			<path style="fill:#020202;" d="M2336.454,1087.348l-21.969-67.782c-4.94-15.243-15.102-27.964-28.61-35.82l0.869-1.497
				c13.879,8.07,24.315,21.134,29.389,36.784l21.969,67.781L2336.454,1087.348z"/>
		</g>
		<g>
			<g>
				<path style="fill:#E28569;" d="M2290.473,710.607c-0.264-0.063-6.471-1.6-8.35-6.104c-1.003-2.404-0.564-5.185,1.304-8.265
					c0.826-1.361,1.588-2.595,2.285-3.725c4.852-7.85,6.486-10.493,5.216-16.638l0.555-0.115c1.316,6.364-0.481,9.275-5.287,17.052
					c-0.697,1.127-1.458,2.359-2.283,3.721c-1.769,2.915-2.194,5.523-1.267,7.748c1.767,4.24,7.897,5.76,7.96,5.775
					L2290.473,710.607z"/>
			</g>
			<g>
				<path style="fill:#E28569;" d="M2291.205,675.819c0,0,2.146,9.855-4.288,20.171c-6.433,10.315,0.569,17.855,9.284,13.886
					c8.715-3.968,12.038,7.31,23.179,1.075C2330.521,704.718,2291.205,675.819,2291.205,675.819z"/>
			</g>
			<g>
				<path style="fill:#F7B686;" d="M2342.698,719.396c-4.814-0.522-8.996-3.59-10.911-8.103l-6-14.143l-1.741-4.104l-10.239-24.136
					l1.775,25.013l1.068,15.013l0.303,4.28c0.249,3.492-2.156,6.582-5.551,7.202l-0.06,0.011c-1.821,3.006-4.339,9.119,3.18,11.546
					c8.835,2.854,23.125-4.204,28.253-12.568C2342.75,719.402,2342.725,719.4,2342.698,719.396z"/>
			</g>
			<g>
				<path style="fill:#2F1A31;" d="M2325.813,696.736c-0.004,0.139-0.013,0.277-0.025,0.414c-0.588,8.064-9.086,11.83-9.086,11.83
					l-0.051-0.045l-1.068-15.013c2.599-0.966,6.299-1.959,8.464-0.877C2325.178,693.611,2325.89,694.742,2325.813,696.736z"/>
			</g>
			<g>
				<ellipse style="fill:#F7B686;" cx="2312.688" cy="672.91" rx="23.155" ry="28.994"/>
			</g>
			<g>
				<path style="fill:#F7B686;" d="M2332.746,677.283c-2.622,2.541-6.29,2.802-8.191,0.582c-1.9-2.221-1.315-6.081,1.308-8.623
					c2.622-2.542,6.29-2.803,8.191-0.582S2335.369,674.741,2332.746,677.283z"/>
			</g>
			<g>
				<path style="fill:#DB6B49;" d="M2300.219,691.672c0,0,7.909,0.186,15.819-2.635c0,0,0.657,7.912-7.91,8.442
					C2303.146,697.788,2300.219,691.672,2300.219,691.672z"/>
			</g>
			<g>
				<path style="fill:#FFFFFF;" d="M2300.219,691.672c0,0,1.914,1.612,6.379,1.592c4.466-0.02,9.44-4.227,9.44-4.227
					S2306.508,691.694,2300.219,691.672z"/>
			</g>
			<g>
				<g>
					<path style="fill:#060633;" d="M2310.449,673.19c-0.154-0.043-0.288-0.156-0.352-0.318c-0.107-0.273,0.022-0.584,0.292-0.694
						c0.159-0.063,3.703-1.915,6.818,1.543c0.196,0.218,0.192,0.553-0.019,0.756c-0.211,0.203-0.504,0.145-0.745-0.019
						c-2.419-1.65-5.53-1.34-5.662-1.287C2310.672,673.216,2310.555,673.219,2310.449,673.19z"/>
				</g>
			</g>
			<g>
				<path style="fill:#060633;" d="M2314.615,679.065c0.041,1.274-0.666,2.332-1.577,2.361c-0.911,0.03-1.684-0.979-1.724-2.256
					c-0.039-1.273,0.667-2.332,1.579-2.36C2313.806,676.779,2314.576,677.789,2314.615,679.065z"/>
			</g>
			<g>
				<g>
					<path style="fill:#060633;" d="M2291.65,675.977c-0.159,0.02-0.324-0.032-0.445-0.157c-0.202-0.212-0.198-0.55,0.01-0.756
						c0.123-0.121,2.706-3.203,6.883-1.209c0.264,0.126,0.386,0.437,0.268,0.706c-0.119,0.271-0.411,0.329-0.696,0.271
						c-2.855-0.591-5.616,0.899-5.719,0.999C2291.865,675.914,2291.759,675.963,2291.65,675.977z"/>
				</g>
			</g>
			<g>
				<path style="fill:#060633;" d="M2297.707,679.797c0.516,1.163,0.259,2.414-0.572,2.794c-0.832,0.38-1.924-0.256-2.439-1.419
					c-0.516-1.164-0.26-2.415,0.572-2.794C2296.1,677.998,2297.191,678.633,2297.707,679.797z"/>
			</g>
			<g>
				<path style="fill:#E28569;" d="M2302.856,649.172c0,0,0.499,10.06,12.877,11.774c12.378,1.716,20.915,7.031,19.252,16.08
					c-1.662,9.051-21.614,27.826-6.95,35.099c14.663,7.271,11.543-6.288,27.439-3.144c15.898,3.144,18.766-18.402,7.819-30.905
					c-10.945-12.504-6.513-45.592-47.561-44.125c-41.048,1.468-26.009,34.706-26.009,34.706S2302.881,660.281,2302.856,649.172z"/>
			</g>
			<g>
				<path style="fill:#FFFFFF;" d="M2332.256,713.985c-3.075-1.261-4.971-3.134-5.635-5.568
					c-1.838-6.745,5.921-16.952,12.767-25.958c1.8-2.368,3.498-4.604,5.004-6.737c4.166-5.902,4.497-12.914,0.863-18.297
					c-3.95-5.852-11.382-8.318-19.397-6.43c-8.075,1.902-13.635,0.186-16.875-1.591c-3.52-1.928-5.097-4.273-5.162-4.371l0.28-0.187
					c0.063,0.094,6.446,9.409,21.679,5.821c8.156-1.917,15.725,0.598,19.754,6.568c3.714,5.502,3.383,12.659-0.866,18.679
					c-1.509,2.139-3.21,4.377-5.012,6.746c-6.799,8.944-14.503,19.082-12.709,25.667c0.644,2.362,2.422,4.11,5.437,5.346
					L2332.256,713.985z"/>
			</g>
			<g>
				<g>
					<path style="fill:#6F4975;" d="M2290.788,694.524c-3.477-1.3-6.537-5.199-8.175-10.429c-2.674-8.524-0.797-18,4.185-21.129
						c1.853-1.194,3.938-1.375,6.016-0.604c3.477,1.299,6.538,5.199,8.175,10.413l0,0c2.674,8.51,0.797,18.001-4.184,21.145
						c-1.117,0.711-2.315,1.058-3.545,1.058C2292.441,694.977,2291.615,694.826,2290.788,694.524z M2300.006,673.107
						c-1.541-4.927-4.363-8.569-7.55-9.763c-1.794-0.65-3.552-0.483-5.115,0.498c-4.608,2.902-6.284,11.85-3.744,19.936
						c1.54,4.912,4.362,8.57,7.55,9.764c1.779,0.635,3.551,0.483,5.107-0.499C2300.862,690.126,2302.545,681.179,2300.006,673.107
						L2300.006,673.107z"/>
				</g>
			</g>
			<g style="opacity:0.3;">
				<path style="fill:#FFFFFF;" d="M2327.776,667.242c1.857,8.279-1.111,17.168-6.633,19.854
					c-5.52,2.686-11.501-1.849-13.359-10.127c-1.858-8.279,1.112-17.166,6.632-19.853
					C2319.937,654.431,2325.918,658.965,2327.776,667.242z"/>
			</g>
			<g style="opacity:0.3;">
				<path style="fill:#FFFFFF;" d="M2301.209,673.471c1.863,8.316-0.617,17.334-5.539,20.143
					c-4.921,2.808-10.422-1.657-12.283-9.975c-1.863-8.315,0.617-17.334,5.538-20.142
					C2293.848,660.69,2299.347,665.154,2301.209,673.471z"/>
			</g>
			<g>
				<g>
					<path style="fill:#6F4975;" d="M2313.438,687.209c-3.559-1.753-6.276-5.713-7.453-10.867
						c-2.023-8.841,1.273-18.393,7.356-21.295c2.45-1.164,5.041-1.147,7.521,0.061c3.551,1.753,6.262,5.713,7.431,10.853l0,0
						c2.032,8.856-1.267,18.408-7.356,21.294c-1.206,0.59-2.449,0.877-3.692,0.877
						C2315.97,688.131,2314.688,687.813,2313.438,687.209z M2313.773,655.984c-5.658,2.705-8.704,11.729-6.791,20.117
						c1.095,4.774,3.679,8.583,6.909,10.171c2.167,1.027,4.461,1.043,6.612,0.045c5.666-2.705,8.711-11.728,6.791-20.116l0,0
						c-1.088-4.761-3.664-8.555-6.888-10.156c-1.102-0.545-2.241-0.816-3.38-0.816
						C2315.932,655.229,2314.838,655.485,2313.773,655.984z"/>
				</g>
			</g>
			<g>
				<g>
					<path style="fill:#6F4975;" d="M2300.117,676.569c0.217,0,0.433-0.075,0.61-0.227l0,0c0.104-0.09,2.6-2.07,6.903-1.238
						c0.506,0.075,1.026-0.242,1.132-0.772c0.104-0.529-0.238-1.043-0.761-1.133c-5.196-1.104-8.361,1.525-8.502,1.632
						c-0.402,0.348-0.462,0.968-0.12,1.375C2299.566,676.448,2299.842,676.569,2300.117,676.569z"/>
				</g>
			</g>
		</g>
		<g>
			<g>
				<g>
					<path style="fill:#F7B686;" d="M2387.702,880.858c0,0-13.216-14.483-24.599-14.259c-11.383,0.226-25.756,9.248-18.67,10.629
						c7.085,1.381,16.618,0.607,16.618,0.607s-20.292,2.625-17.632,7.176c2.66,4.55,20.287,2.095,20.287,2.095
						s-23.901,5.076-20.018,8.55c3.885,3.473,22.014-0.515,22.014-0.515s-22.052,5.625-17.446,9.552
						c4.604,3.927,18.193-4.768,20.853-0.218c2.66,4.551,14.742,21.714,28.107,15.755L2387.702,880.858z"/>
				</g>
			</g>
			<g>
				<path style="fill:#DD8964;" d="M2369.164,878.862c-2.521-2.152-7.941-0.634-7.996-0.619l-0.233-0.814
					c0.24-0.069,5.912-1.659,8.78,0.788L2369.164,878.862z"/>
			</g>
			<g>
				<path style="fill:#DD8964;" d="M2373.516,888.317c-4.334-2.409-9.633-0.823-9.685-0.806l-0.249-0.81
					c0.232-0.07,5.699-1.705,10.345,0.875L2373.516,888.317z"/>
			</g>
			<g>
				<path style="fill:#DD8964;" d="M2374.81,896.229c-2.487-2.516-8.925-0.699-8.988-0.681l-0.235-0.813
					c0.284-0.083,6.985-1.975,9.825,0.897L2374.81,896.229z"/>
			</g>
		</g>
		<g>
			<path style="fill:#2F1A31;" d="M2427.257,740.471c3.511,5.108-3.63,12.005-18.254,22.74
				c-14.625,10.735-20.998,14.543-24.509,9.436c-3.512-5.107,0.674-13.798,15.208-24.658
				C2410.369,740.019,2423.745,735.363,2427.257,740.471z"/>
		</g>
		<g>
			<g>
				<path style="fill:#F7B686;" d="M2388.768,915.593l-12.907-28.882c-1.764-3.946-0.317-8.676,3.284-10.768
					c18.318-10.644,28.896-23.342,31.475-37.81c3.58-20.09-7.587-43.168-17.402-58.167c-5.024-7.675-5.565-15.13,2.371-24.517
					c3.294-3.897,6.524-6.608,17.052-11.068c5.086-2.155,10.149-2.845,12.995,0.866c4.455,5.808,7.636,10.575,13.815,22.168
					c14.677,27.533,20.168,55.019,15.881,79.483c-5.262,30.028-24.051,54.355-55.893,72.408
					C2395.529,921.521,2390.67,919.852,2388.768,915.593z"/>
			</g>
		</g>
		<g style="opacity:0.5;">
			<path style="fill:#E08B65;" d="M2439.637,844.683c-0.478,0-0.951-0.064-1.416-0.19c-4.14-1.126-6.223-6.844-4.742-13.017
				c0.887-3.694,2.923-6.794,5.447-8.289c1.531-0.908,3.139-1.167,4.65-0.757c4.138,1.126,6.221,6.844,4.74,13.017
				c-0.886,3.694-2.922,6.793-5.447,8.29C2441.811,844.363,2440.713,844.683,2439.637,844.683z M2442.167,824.32
				c-0.866,0-1.636,0.33-2.182,0.653c-2.051,1.216-3.729,3.828-4.485,6.986c-1.176,4.904,0.319,9.725,3.267,10.527
				c1.209,0.331,2.321-0.112,3.043-0.54c2.052-1.216,3.729-3.826,4.485-6.984c1.177-4.905-0.318-9.727-3.266-10.528
				C2442.734,824.356,2442.445,824.32,2442.167,824.32z"/>
		</g>
		<g>
			<path style="fill:#6F4975;" d="M2363.19,940.445c0,0-95.493-18.515-126.455-9.781l14.847,22.332l55.195,3.17L2363.19,940.445z"/>
		</g>
	</g>
	<g>
		<g>
			<path style="fill:#BED5DC;" d="M837.536,1282.695c0,0-24.597-25.076-16.134-39.357c8.464-14.282,22.746,30.679,22.746,30.679
				s-7.405-53.165,7.934-54.088c15.34-0.923,0,54.088,0,54.088s5.687-12.827,11.241-13.62c5.554-0.793,3.967,10.877-5.951,22.299
				H837.536z"/>
		</g>
		<g>
			<path style="fill:#42428E;" d="M839.297,1283.324c-0.07-0.07-7.108-7.283-12.867-16.395c-7.858-12.433-9.731-22.302-5.564-29.335
				c1.557-2.624,3.427-3.833,5.553-3.589c4.242,0.484,9.227,7.183,14.812,19.911c1.701,3.877,3.207,7.752,4.388,10.957
				c-1.354-13.917-2.927-41.639,4.735-50.995c1.663-2.032,3.692-3.134,6.031-3.274c2.28-0.134,4.151,0.679,5.563,2.427
				c6.889,8.527,0.662,38.654-2.759,52.751c2.552-4.134,6.172-8.742,9.872-9.271c1.746-0.246,3.145,0.403,3.927,1.84
				c2.232,4.098-0.849,14.545-9.869,24.934l-1.359-1.181c8.868-10.214,11.302-19.857,9.648-22.892
				c-0.421-0.771-1.084-1.065-2.092-0.919c-4.764,0.68-10.315,11.003-12.054,14.922l-1.69-0.606
				c0.034-0.121,3.396-12.24,5.653-25.507c2.95-17.35,2.716-28.74-0.677-32.94c-1.04-1.287-2.358-1.867-4.055-1.761
				c-1.844,0.11-3.396,0.968-4.747,2.618c-9.677,11.815-3.479,57.251-3.416,57.708l-1.749,0.396
				c-3.209-10.104-13.125-36.504-20.366-37.33c-1.388-0.157-2.623,0.731-3.8,2.72c-9.142,15.425,17.894,43.271,18.167,43.551
				L839.297,1283.324z"/>
		</g>
	</g>
	<g>
		<g>
			<path style="fill:#BED5DC;" d="M2521.906,1301.609c0,0-24.597-25.076-16.134-39.357c8.464-14.282,22.745,30.679,22.745,30.679
				s-7.404-53.164,7.936-54.088s0,54.088,0,54.088s5.686-12.827,11.24-13.62c5.554-0.794,3.967,10.877-5.951,22.299H2521.906z"/>
		</g>
		<g>
			<path style="fill:#42428E;" d="M2523.668,1302.239c-0.07-0.071-7.108-7.283-12.868-16.396
				c-7.858-12.433-9.73-22.302-5.563-29.335c1.557-2.624,3.428-3.833,5.553-3.589c4.243,0.484,9.227,7.184,14.812,19.912
				c1.701,3.877,3.208,7.751,4.389,10.957c-1.354-13.918-2.928-41.64,4.733-50.996c1.664-2.032,3.693-3.134,6.032-3.275
				c2.278-0.14,4.151,0.681,5.563,2.428c6.889,8.527,0.662,38.654-2.758,52.752c2.552-4.136,6.172-8.742,9.871-9.271
				c1.753-0.244,3.146,0.405,3.927,1.84c2.232,4.099-0.848,14.546-9.869,24.935l-1.358-1.181c8.868-10.214,11.3-19.857,9.647-22.893
				c-0.421-0.771-1.09-1.066-2.092-0.919c-4.764,0.68-10.316,11.003-12.054,14.923l-1.689-0.606
				c0.034-0.121,3.396-12.24,5.651-25.509c2.95-17.35,2.717-28.739-0.676-32.939c-1.04-1.287-2.363-1.868-4.055-1.762
				c-1.843,0.111-3.396,0.967-4.748,2.618c-9.674,11.813-3.479,57.252-3.414,57.71l-1.75,0.396
				c-3.209-10.103-13.125-36.503-20.366-37.33c-1.38-0.169-2.623,0.732-3.8,2.719c-9.138,15.419,17.894,43.272,18.168,43.553
				L2523.668,1302.239z"/>
		</g>
	</g>
	<g>
		<g>
			<path style="fill:#BED5DC;" d="M294.559,1309.871c0,0-24.596-25.076-16.133-39.358c8.463-14.281,22.745,30.68,22.745,30.68
				s-7.405-53.165,7.935-54.089c15.34-0.923,0,54.089,0,54.089s5.686-12.827,11.241-13.621c5.554-0.793,3.967,10.878-5.951,22.3
				H294.559z"/>
		</g>
		<g>
			<path style="fill:#42428E;" d="M296.32,1310.5c-0.07-0.07-7.108-7.283-12.867-16.396c-7.859-12.433-9.73-22.302-5.563-29.335
				c1.555-2.624,3.421-3.838,5.552-3.589c4.243,0.484,9.227,7.184,14.812,19.912c1.701,3.877,3.208,7.752,4.389,10.958
				c-1.355-13.918-2.928-41.641,4.733-50.998c1.664-2.031,3.694-3.133,6.032-3.273c2.273-0.136,4.151,0.679,5.563,2.428
				c6.889,8.526,0.662,38.655-2.759,52.752c2.552-4.135,6.173-8.743,9.873-9.272c1.745-0.244,3.144,0.403,3.927,1.84
				c2.232,4.098-0.849,14.545-9.87,24.935l-1.359-1.181c8.869-10.213,11.302-19.857,9.648-22.892
				c-0.419-0.772-1.085-1.066-2.092-0.92c-4.763,0.681-10.316,11.004-12.054,14.924l-1.69-0.606
				c0.034-0.122,3.396-12.241,5.652-25.508c2.951-17.351,2.717-28.741-0.676-32.941c-1.04-1.287-2.367-1.874-4.055-1.761
				c-1.843,0.11-3.395,0.967-4.747,2.618c-9.675,11.816-3.478,57.252-3.414,57.709l-1.749,0.396
				c-3.21-10.104-13.126-36.504-20.368-37.33c-1.381-0.17-2.622,0.731-3.799,2.719c-9.137,15.418,17.893,43.272,18.167,43.553
				L296.32,1310.5z"/>
		</g>
	</g>
	<g style="opacity:0.5;">
		<g>
			<path style="fill:#74A1BD;" d="M1732.385,562.088c-1.604-35.192-32.749-64.948-67.461-64.948
				c-49.176,0-65.307,38.237-67.245,73.412c-2.015,36.535,29.715,61.538,64.425,61.538
				C1696.814,632.09,1734.377,605.808,1732.385,562.088z"/>
		</g>
		<g>
			<path style="fill:#C4D7D4;" d="M1720.185,565.773c0-28.025-27.563-57.88-55.161-58.777c-40.826-1.326-57.385,40.715-57.385,68.74
				c0,28.023,28.502,44.73,56.114,44.73C1691.364,620.466,1720.185,593.797,1720.185,565.773z"/>
		</g>
		<g>
			<path style="fill:#74A1BD;" d="M1670.938,564.825c-0.37-3.826-4.378-6.376-8.165-6.376c-3.788,0-7.853,4.632-7.853,8.477
				c0,3.845,4.064,6.984,7.853,6.984C1666.56,573.91,1671.624,571.918,1670.938,564.825z"/>
		</g>
		<g>
			<g>
				<path style="fill:#74A1BD;" d="M1662.772,568.332h-1.372c-0.752,0-1.361-0.618-1.361-1.382c0-0.764-1.715-3.354-0.962-3.354
					l0.763-1.626l1.635-37.854l-1.698,1.058c-0.431,0.629-1.278,0.78-1.894,0.353c-0.616-0.433-0.772-1.294-0.345-1.921l4.188-6.165
					c0.339-0.499,0.955-0.716,1.527-0.533c0.568,0.18,0.953,0.715,0.953,1.32l2.269,48.62
					C1666.476,567.609,1663.521,568.332,1662.772,568.332z"/>
			</g>
			<g>
				<path style="fill:#74A1BD;" d="M1667.475,525.373c-0.394,0-0.787-0.174-1.056-0.509l-5.169-3.756
					c-0.475-0.593,0.153-3.474,0.738-3.955c0.579-0.479,1.438-0.393,1.913,0.199l4.628,5.767c0.477,0.593,0.389,1.462-0.196,1.944
					C1668.08,525.271,1667.777,525.373,1667.475,525.373z"/>
			</g>
		</g>
		<g>
			<g>
				<path style="fill:#74A1BD;" d="M1638.108,572.806c-0.355,0-0.712-0.142-0.979-0.422l-4.042-4.251
					c-0.38-0.399-0.489-0.989-0.273-1.5c0.212-0.51,0.707-0.84,1.251-0.84h0.003l32.121-1.713c0.749,0.002,1.177,2.406,1.177,3.168
					v1.393c0,0.764-0.609,1.381-1.361,1.381c-0.753,0-2.447,0.685-2.447-0.077l1.086-1.317l-27.363-0.064l1.808,1.902
					c0.522,0.549,0.508,1.423-0.032,1.953C1638.789,572.679,1638.449,572.806,1638.108,572.806z"/>
			</g>
			<g>
				<path style="fill:#74A1BD;" d="M1634.065,568.556c-0.302,0-0.608-0.103-0.86-0.312c-0.582-0.483-0.668-1.353-0.194-1.944
					l3.78-4.698c0.481-0.592,1.336-0.676,1.916-0.195c0.582,0.482,0.667,1.352,0.194,1.943l-1.485,3.518
					C1637.146,567.201,1634.459,568.556,1634.065,568.556z"/>
			</g>
		</g>
	</g>
	<g>
		<g>
			<g>
				<g>
					<path style="fill:#CFE2DE;" d="M832.146,490.003c0.256,4.2-21.149,9.261-52.734,13.158c-1.82,0.219-3.681,0.44-5.571,0.659
						c-12.205,1.394-25.739,2.609-39.988,3.541c-12.102,0.797-23.704,1.309-34.447,1.571c-3.895,0.105-7.667,0.167-11.315,0.199
						c-31.771,0.262-53.624-1.959-53.89-6.159c-0.225-3.625,15.69-7.889,40.355-11.482c1.962-0.282,3.977-0.565,6.051-0.848
						c10.438-1.404,22.192-2.683,34.785-3.74c5.561-0.471,11.265-0.911,17.101-1.288c4.069-0.272,8.097-0.503,12.032-0.702
						c16.671-0.87,32.107-1.205,45.211-1.037c0.317,0,0.624,0.011,0.931,0.011C815.587,484.23,831.912,486.389,832.146,490.003z"/>
				</g>
				<g>
					<path style="fill:#2F1A31;" d="M733.172,426.769L733.172,426.769c-2.353,0-4.259-1.906-4.259-4.259v-71.382
						c0-2.352,1.906-4.259,4.259-4.259l0,0c2.352,0,4.259,1.907,4.259,4.259v71.382
						C737.431,424.862,735.523,426.769,733.172,426.769z"/>
				</g>
				<g>
					<path style="fill:#2F1A31;" d="M720.825,421.441c0-6.987,5.528-12.652,12.347-12.652c6.819,0,12.346,5.664,12.346,12.652
						c0,6.988-5.526,12.653-12.346,12.653C726.353,434.095,720.825,428.43,720.825,421.441z"/>
				</g>
				<g>
					<g>
						<path style="fill:#F7B686;" d="M713.199,609.554L713.199,609.554c2.109,0.958,4.607-0.011,5.551-2.15l14.646-33.231
							c0.943-2.142-0.01-4.677-2.119-5.635l0,0c-2.11-0.957-4.607,0.012-5.552,2.152l-14.646,33.231
							C710.136,606.06,711.09,608.596,713.199,609.554z"/>
					</g>
					<g>
						<path style="fill:#F7B686;" d="M703.381,605.096L703.381,605.096c2.11,0.958,4.607-0.01,5.551-2.15l16.381-37.165
							c0.943-2.14-0.011-4.676-2.121-5.633l0,0c-2.109-0.958-4.606,0.01-5.55,2.15l-16.381,37.165
							C700.317,601.602,701.271,604.138,703.381,605.096z"/>
					</g>
					<g>
						<path style="fill:#F7B686;" d="M693.563,600.639L693.563,600.639c2.109,0.958,4.607-0.011,5.551-2.151l13.13-29.791
							c0.943-2.141-0.011-4.676-2.119-5.634l0,0c-2.109-0.957-4.608,0.011-5.552,2.151l-13.129,29.791
							C690.5,597.146,691.454,599.681,693.563,600.639z"/>
					</g>
					<g>
						<path style="fill:#F7B686;" d="M711.519,631.505c0,0,19.556-14.144,20.335-31.442c0.27-5.986-28.989-18.303-34.065-13.995
							c-5.074,4.306-12.01,25.303-12.01,25.303L711.519,631.505z"/>
					</g>
					<g>
						<path style="fill:#F7B686;" d="M722.936,614.01L722.936,614.01c2.107,0.956,4.599-0.011,5.54-2.146l13.103-29.729
							c0.941-2.137-0.011-4.667-2.114-5.623l0,0c-2.105-0.955-4.599,0.011-5.54,2.147l-13.103,29.729
							C719.88,610.524,720.833,613.055,722.936,614.01z"/>
					</g>
					<g>
						<g>
							<path style="fill:#F7B686;" d="M682.252,605.187c-29.955,36.576-75.8,86.762-124.099,118.128
								c-11.19,7.267-15.567,9.875-22.672,13.149c-5.717,2.634-7.647,15.855-3.313,25.832c4.067,9.36,13.946,14.718,21.393,12.87
								c5.56-1.381,2.499,6.042,15.101-1.853c43.783-27.427,96.893-81.267,145.506-143.93L682.252,605.187z"/>
						</g>
					</g>
					<g>
						<path style="fill:#2F1A31;" d="M506.113,1282.749c0,0,0.339,13.736,9.496,17.611c9.159,3.875,35.694,7.372,25.778,16.204
							c-5.689,5.066-32.502,1.793-40.072,1.792c-7.57,0-14.679,3.349-20.304-1.794c-6.189-5.658,0.001-33.814,0.001-33.814
							s6.532,3.454,12.407,3.299C501.886,1285.824,506.113,1282.749,506.113,1282.749z"/>
					</g>
					<g>
						<path style="fill:#2F1A31;" d="M400.938,1282.746c0,0,0.339,13.737,9.497,17.612c9.158,3.875,35.693,7.371,25.778,16.203
							c-5.69,5.067-32.503,1.793-40.072,1.792c-7.571,0-14.679,3.349-20.305-1.794c-6.189-5.657,0.001-33.814,0.001-33.814
							s6.533,3.454,12.407,3.3C396.712,1285.821,400.938,1282.746,400.938,1282.746z"/>
					</g>
					<g>
						<path style="fill:#436E8E;" d="M574.181,906.174c0,0,1.694,57.5-16.39,167.806c-13.054,79.632-28.464,159.876-36.025,198.347
							c-2.705,13.76-14.108,23.822-27.622,24.373l-7.263,0.295c-14.612,0.594-26.472-12.146-25.404-27.291l18.345-260.267
							l4.522-85.663L574.181,906.174z"/>
					</g>
					<g>
						<path style="fill:#436E8E;" d="M536.385,955.152l-118.928,324.375c-4.266,13.908-16.604,23.438-30.658,23.684l-6.126,0.105
							c-14.464,0.251-25.52-13.322-22.883-28.093l62.002-321.503c0.81-3.711,13.689-5.418,17.347-5.727
							C467.477,945.435,538.261,941.411,536.385,955.152z"/>
					</g>
					<g>
						<path style="fill:#9BBCB6;" d="M458.36,762.466c0,0,18.887-36.35,66.445-27.581c22.476,4.144,35.821-5.928,41.278,36.072
							c4.9,37.713-5.13,86.995-10.724,159.966c0,0-34.62-79.516-132.125-52.348c0,0-4.148-36.382,13.342-97.323
							C441.502,764.093,451.996,774.06,458.36,762.466z"/>
					</g>
					<g>
						<path style="fill:#9BBCB6;" d="M419.543,740.805l36.303,41.4c0,0,84.035,39.77,111.242-0.259
							c19.901-29.278-3.045-62.559-3.045-62.559s-21.383,11.834-47.199,10.914c-7.184-0.256-25.393,0.865-32.458,0.63
							C435.127,729.29,419.543,740.805,419.543,740.805z"/>
					</g>
					<g>
						<path style="fill:#020202;" d="M470.692,1136.817l-1.683-0.389l25.076-108.76c5.08-15.687,15.493-28.721,29.34-36.772
							l0.868,1.493c-13.478,7.838-23.616,20.53-28.545,35.739L470.692,1136.817z"/>
					</g>
					<g>
						<path style="fill:#2F1A31;" d="M419.283,741.082c-3.828,3.742,0.029,14.373,12.91,27.145
							c12.882,12.771,18.914,17.408,24.49,11.142c3.685-4.14,3.266-21.22-10.048-31.978
							C436.297,739.035,422.014,738.413,419.283,741.082z"/>
					</g>
					<g>
						<path style="fill:#436E8E;" d="M438.924,947.846c0,0,65.1-10.944,128.753,3.307c2.923,0.654,4.914,3.41,4.632,6.435
							l-2.256,24.113l-66.613-16.825L438.924,947.846z"/>
					</g>
					<g>
						<g>
							<path style="fill:#F7B686;" d="M317.89,952.514L317.89,952.514c-2.286-0.342-4.432,1.278-4.768,3.598l-5.218,36.018
								c-0.336,2.321,1.26,4.499,3.546,4.84l0,0c2.286,0.341,4.432-1.278,4.768-3.599l5.218-36.018
								C321.771,955.032,320.176,952.856,317.89,952.514z"/>
						</g>
						<g>
							<path style="fill:#F7B686;" d="M328.531,954.102L328.531,954.102c-2.286-0.341-4.432,1.278-4.768,3.599l-5.836,40.28
								c-0.336,2.32,1.26,4.498,3.546,4.84l0,0c2.286,0.341,4.432-1.279,4.768-3.6l5.836-40.279
								C332.413,956.62,330.817,954.442,328.531,954.102z"/>
						</g>
						<g>
							<path style="fill:#F7B686;" d="M334.429,933.565l-1.293,0.762c-2.417,1.425-3.245,4.597-1.842,7.049l13.668,23.889
								c1.403,2.452,4.527,3.293,6.944,1.869l1.293-0.762c2.416-1.424,3.245-4.596,1.842-7.049l-13.669-23.888
								C339.97,932.981,336.845,932.141,334.429,933.565z"/>
						</g>
						<g>
							<path style="fill:#F7B686;" d="M339.173,955.69L339.173,955.69c-2.287-0.342-4.432,1.278-4.768,3.6l-4.678,32.287
								c-0.336,2.32,1.26,4.498,3.546,4.84l0,0c2.286,0.341,4.432-1.277,4.768-3.599l4.677-32.288
								C343.055,958.209,341.459,956.031,339.173,955.69z"/>
						</g>
						<g>
							<path style="fill:#F7B686;" d="M313.641,930.923c0,0-15.043,18.996-11.172,35.86c1.34,5.836,32.794,9.638,36.528,4.096
								c3.735-5.542,4.799-27.661,4.799-27.661L313.641,930.923z"/>
						</g>
						<g>
							<path style="fill:#F7B686;" d="M307.326,950.904L307.326,950.904c-2.281-0.34-4.422,1.275-4.758,3.592l-4.668,32.221
								c-0.335,2.315,1.256,4.489,3.538,4.829l0,0c2.282,0.341,4.422-1.275,4.758-3.591l4.668-32.222
								C311.2,953.418,309.607,951.245,307.326,950.904z"/>
						</g>
					</g>
					<g>
						<g>
							<path style="fill:#F7B686;" d="M348.844,948.198c19.059-43.45,49.776-104.373,87.883-147.858
								c8.83-10.076,12.346-13.79,18.309-18.896c4.799-4.109,3.124-17.367-3.714-25.775c-6.416-7.892-17.357-10.328-24.029-6.5
								c-4.983,2.858-9.38,6.941-19.399,18.009c-34.814,38.45-66.187,92.822-96.234,166.516L348.844,948.198z"/>
						</g>
					</g>
					<g style="opacity:0.5;">
						<path style="fill:#E08B65;" d="M370.383,852.879c-0.95,0-1.865-0.213-2.705-0.66c-1.383-0.737-2.386-2.033-2.899-3.751
							c-0.844-2.822-0.27-6.482,1.538-9.789c3.035-5.554,8.385-8.321,12.18-6.302c1.383,0.737,2.386,2.034,2.899,3.752
							c0.845,2.823,0.27,6.482-1.538,9.788C377.494,850.242,373.726,852.878,370.383,852.879z M375.826,833.804
							c-2.567,0-5.749,2.316-7.691,5.87l0,0c-1.547,2.83-2.059,5.896-1.37,8.199c0.245,0.819,0.772,1.921,1.888,2.516
							c2.685,1.429,6.984-1.071,9.386-5.467c1.547-2.83,2.06-5.895,1.37-8.199c-0.245-0.819-0.771-1.922-1.888-2.515
							C377.007,833.935,376.434,833.804,375.826,833.804z"/>
					</g>
					<g>
						<path style="fill:#F7B686;" d="M495.272,718.776l1.083-16.732l0.314-4.871l1.851-28.64l7.325,26.262l4.395,15.764
							c0,0,3.493,14.728,6.282,17.579c3.996,4.087,5.105,9.234-3.166,10.833c-10.12,1.956-19.228-1.403-27.665-7.973
							C485.74,730.976,495.022,727.426,495.272,718.776z"/>
					</g>
					<g>
						<g>
							<path style="fill:#56335B;" d="M517.102,657.658c0,0,3.182,6.05,3.43,14.545c0.249,8.494-12.55-9.426-12.55-9.426
								L517.102,657.658z"/>
						</g>
						<g>
							<path style="fill:#F7B686;" d="M522.046,674.303c-5.713-15.154-20.382-23.54-32.764-18.73
								c-12.383,4.808-17.789,20.99-12.075,36.143c5.712,15.154,20.382,23.541,32.764,18.732
								C522.353,705.639,527.76,689.455,522.046,674.303z"/>
						</g>
						<g>
							<g>
								<path style="fill:#060633;" d="M500.571,681.515c0.103-0.107,0.157-0.261,0.134-0.42c-0.042-0.27-0.288-0.455-0.554-0.414
									c-0.156,0.024-3.833,0.24-4.712,4.477c-0.056,0.267,0.103,0.531,0.365,0.593c0.262,0.062,0.467-0.124,0.584-0.37
									c1.16-2.466,3.78-3.701,3.91-3.723C500.406,681.641,500.502,681.589,500.571,681.515z"/>
							</g>
						</g>
						<g>
							<path style="fill:#060633;" d="M499.974,688.175c0.558,1.033,1.608,1.538,2.349,1.126c0.738-0.41,0.886-1.581,0.326-2.614
								c-0.557-1.034-1.607-1.539-2.348-1.128C499.561,685.97,499.415,687.142,499.974,688.175z"/>
						</g>
						<g>
							<g>
								<path style="fill:#060633;" d="M517.744,675.835c0.104-0.046,0.182-0.153,0.199-0.302c0.029-0.25-0.121-0.52-0.337-0.604
									c-0.128-0.05-3.043-1.52-4.694,1.729c-0.104,0.205-0.041,0.503,0.149,0.674c0.19,0.171,0.392,0.105,0.539-0.055
									c1.468-1.598,3.792-1.482,3.897-1.441C517.586,675.869,517.672,675.867,517.744,675.835z"/>
							</g>
						</g>
						<g>
							<path style="fill:#060633;" d="M514.589,681.807c0.128,1.171,0.911,2.045,1.749,1.949c0.837-0.094,1.412-1.119,1.284-2.291
								c-0.128-1.172-0.911-2.045-1.748-1.95C515.036,679.608,514.462,680.635,514.589,681.807z"/>
						</g>
						<g>
							<path style="fill:#56335B;" d="M459.905,688.074c0,0,11.834,15.195,23.195,13.762c0,0-12.02-10.852,4.97-23.372
								C488.07,678.464,470.102,679.905,459.905,688.074z"/>
						</g>
						<g>
							<path style="fill:#F7B686;" d="M477.73,693.716c2.727,0.954,5.619-0.278,6.459-2.752c0.839-2.474-0.691-5.251-3.418-6.205
								c-2.728-0.953-5.619,0.278-6.459,2.753C473.473,689.984,475.004,692.763,477.73,693.716z"/>
						</g>
						<g>
							<path style="fill:#56335B;" d="M488.07,678.464c0,0,1.871,14.71,5.388,16.724c3.516,2.013,22.783-1.435,30.828-7.063l0,0
								c2.319,9.175-2.16,18.862-10.752,22.563c-2.843,1.224-5.905,1.971-9.076,2.171l0,0c-6.464,0.405-13.111-0.733-17.047-5.953
								c-1.198-1.59-1.513-13.076-1.513-13.076s-0.661-6.625-5.127-9.07C480.771,684.759,484.104,679.854,488.07,678.464z"/>
						</g>
						<g>
							<path style="fill:#FFFFFF;" d="M520.827,694.433c0,0-6.806,3.768-14.942,4.917c0,0,2.929,7.19,10.624,3.747
								C520.984,701.094,520.827,694.433,520.827,694.433z"/>
						</g>
						<g>
							<path style="fill:#E28569;" d="M480.262,679.499c0,0,49.134-4.806,61.754-19.181c12.62-14.375-26.563-9.666-26.563-9.666
								S483.607,679.057,480.262,679.499z"/>
						</g>
						<g>
							<path style="fill:#D16B54;" d="M515.452,650.652c0,0-13.891-17.712-36.64-11.446c-22.749,6.266-33.237,25.225-18.907,48.868
								c0,0,18.44-3.253,35.109-18.216C511.684,654.898,515.452,650.652,515.452,650.652z"/>
						</g>
					</g>
					<g>
						<path style="fill:#436E8E;" d="M423.572,872.861c0,0,39.347-16.764,46.278-44.89c6.933-28.128,1.553-48.851,32.085-51.362
							c30.531-2.512,54.398-7.033,64.561,2.512c9.555,8.972,11.447,121.197,4.972,186.549c-0.251,2.525-0.338,4.666-0.509,6.346
							c-2.848,28.05-153.086-2.621-153.086-2.621L423.572,872.861z"/>
					</g>
					<g>
						<path style="fill:#436E8E;" d="M502.832,781.036c0,0-7.811-40.841-23.581-50.264c0,0-8.037-2.822-10.203,0
							c0,0,19.482,29.823,19.022,55.569L502.832,781.036z"/>
					</g>
					<g>
						<path style="fill:#436E8E;" d="M544.519,777.551c0,0-10.189-35.807-21.893-47.249c0,0,5.968-2.444,12.081,1.837
							c0,0,18.797,22.806,20.343,46.668L544.519,777.551z"/>
					</g>
					<g>
						<g>
							<path style="fill:#96A7E2;" d="M801.794,542.396c6.445,27.354-12.243,63.429-43.968,71.129
								c-31.726,7.701-64.541-7.845-69.112-35.584c-6.665-40.428,14.046-55.77,45.771-63.471
								C766.209,506.77,795.348,515.044,801.794,542.396z"/>
						</g>
						<g>
							<path style="fill:#96A7E2;" d="M698.729,532.229c0,0,17.848-18.27,13.171-38.118l27.681-6.719
								c0,0,4.837,20.487,28.229,25.285C767.81,512.677,735.313,539.869,698.729,532.229z"/>
						</g>
						<g>
							<path style="fill:#9BBCB6;" d="M712.677,501.424c0,0-9.037,0.825-9.234-9.457c0,0-7.731-5.119-3.183-12.034
								c0,0-6.617-5.71-3.387-13.598c3.23-7.887,39.654-13.499,43.326-10.517c3.671,2.982,3.275,7.599,0.506,9.347
								c0,0,5.026,2.296,4.883,6.707c-0.143,4.41-2.157,5.761-2.157,5.761s3.646,1.051,5.24,6.476
								C750.264,489.532,745.726,498.106,712.677,501.424z"/>
						</g>
						<g style="opacity:0.4;">
							<path style="fill:#FFFFFF;" d="M761.41,588.132c0,0,9.521-9.993,10.655-23.182c1.133-13.188,14.373-12.438,18.398-1.837
								c4.023,10.6-2.774,26.023-10.686,28.805C771.865,594.7,759.094,598.096,761.41,588.132z"/>
						</g>
						<g>
							<path style="fill:#7AA098;" d="M702.957,480.657c-1.712,0-2.725-0.101-2.763-0.104l0.132-1.24
								c0.141,0.016,14.12,1.388,26.912-6.538l0.657,1.06C718.174,479.857,707.786,480.657,702.957,480.657z"/>
						</g>
						<g>
							<path style="fill:#7AA098;" d="M703.496,492.59c-0.024,0-0.042,0-0.056,0l0.005-1.247c0,0,0.004,0,0.006,0
								c0.444,0,18.783-0.067,29.027-7.025l0.7,1.031C722.721,492.451,704.842,492.59,703.496,492.59z"/>
						</g>
					</g>
					<g>
						<path style="fill:#F7B686;" d="M677.899,610.459c0,0,4.122-11.585,2.254-19.435c-1.869-7.85,7.279-23.948,10.815-29.515
							c4.011-6.312,7.419-3.526,7.631,1.151c0.164,3.622-2.608,7.976-2.063,12.664c1.252,10.742,3.158,7.752,6.575,19.937
							c3.418,12.185,3.13,17.59-2.651,20.491C694.681,618.655,677.899,610.459,677.899,610.459z"/>
					</g>
				</g>
			</g>
			<g>
				<path style="fill:#2F1A31;" d="M495.296,787.599c0-2.341,1.869-4.239,4.176-4.239c2.307,0,3.647,1.96,4.176,4.239
					c0.728,3.131-1.869,4.238-4.176,4.238C497.165,791.837,495.296,789.94,495.296,787.599z"/>
			</g>
			<g>
				<path style="fill:#2F1A31;" d="M543.266,781.946c0-2.341,1.869-4.239,4.176-4.239c2.307,0,3.647,1.961,4.176,4.239
					c0.727,3.132-1.869,4.238-4.176,4.238C545.135,786.185,543.266,784.287,543.266,781.946z"/>
			</g>
		</g>
		<g>
			<g>
				<path style="fill:#E28569;" d="M832.15,490.079v-0.076c-0.235-3.616-16.558-5.776-41.479-6.115c-0.31,0-0.619-0.013-0.94-0.013
					c-13.104-0.163-28.535,0.163-45.204,1.042c-3.935,0.189-7.969,0.427-12.027,0.69c-5.841,0.39-11.545,0.829-17.102,1.294
					c-12.597,1.055-24.353,2.336-34.797,3.742c-2.066,0.277-4.083,0.565-6.051,0.841c-24.464,3.581-40.315,7.788-40.354,11.405
					c0.05-43.003,44.239-83.331,98.971-83.331c54.781,0,99.182,31.26,99.182,69.83C832.349,489.614,832.285,489.853,832.15,490.079z
					"/>
			</g>
		</g>
	</g>
	<g>
		<g>
			<g>
				<g>
					<path style="fill:#9BBCB6;" d="M916.537,1325.902c-0.895,0-1.805-0.149-2.697-0.464c-4.22-1.489-6.433-6.117-4.944-10.337
						l153.842-436.1c1.489-4.221,6.116-6.436,10.338-4.946c4.22,1.489,6.435,6.116,4.945,10.338l-153.843,436.099
						C923.004,1323.821,919.876,1325.902,916.537,1325.902z"/>
				</g>
				<g>
					<path style="fill:#9BBCB6;" d="M707.435,1325.902c-0.896,0-1.805-0.149-2.696-0.464c-4.221-1.489-6.435-6.117-4.946-10.337
						l153.843-436.1c1.488-4.221,6.117-6.436,10.338-4.946c4.22,1.489,6.435,6.116,4.944,10.338l-153.842,436.099
						C713.902,1323.821,710.774,1325.902,707.435,1325.902z"/>
				</g>
				<g>
					<polygon style="fill:#9BBCB6;" points="964.408,1182.095 755.317,1182.063 749.521,1198.494 959.504,1195.996 					"/>
				</g>
				<g>
					<polygon style="fill:#9BBCB6;" points="1023.979,1028.574 814.889,1028.544 809.094,1044.975 1019.076,1042.476 					"/>
				</g>
				<g>
					<polygon style="fill:#9BBCB6;" points="1053.679,925.568 844.588,925.537 838.792,941.969 1048.775,939.47 					"/>
				</g>
				<g>
					<path style="fill:#9BBCB6;" d="M1027.558,1299.061c-3.586,0-6.864-2.397-7.827-6.027l-43.578-164.355
						c-1.147-4.326,1.43-8.763,5.756-9.91c4.325-1.146,8.761,1.43,9.909,5.756l43.578,164.355c1.147,4.326-1.43,8.762-5.756,9.909
						C1028.944,1298.973,1028.246,1299.061,1027.558,1299.061z"/>
				</g>
			</g>
			<g>
				<g>
					<path style="fill:#A2BEE0;" d="M1453.394,366.799h-431.046c-14.486,0-26.231,11.744-26.231,26.23v78.245
						c0,43.577,35.327,78.903,78.904,78.903h378.373c14.486,0,26.229-11.742,26.229-26.228v-130.92
						C1479.624,378.543,1467.881,366.799,1453.394,366.799z"/>
				</g>
				<g>
					<path style="fill:#6F4975;" d="M1034.71,506.165c-3.22,0-4.894,3.895-2.706,6.294c14.667,16.075,35.588,26.177,58.879,26.177
						h294.702c11.336,0,20.526-9.327,20.526-20.834v-7.894c0-2.067-1.651-3.743-3.688-3.743H1034.71z"/>
				</g>
				<g>
					<path style="fill:#6F4975;" d="M1399.47,486.226h-377.622c-1.275,0-2.305-1.047-2.305-2.34c0-1.294,1.03-2.341,2.305-2.341
						h377.622c1.274,0,2.306,1.047,2.306,2.341C1401.775,485.179,1400.744,486.226,1399.47,486.226z"/>
				</g>
				<g>
					<path style="fill:#6F4975;" d="M1399.47,468.535h-377.622c-1.275,0-2.305-1.048-2.305-2.34c0-1.293,1.03-2.34,2.305-2.34
						h377.622c1.274,0,2.306,1.047,2.306,2.34C1401.775,467.487,1400.744,468.535,1399.47,468.535z"/>
				</g>
				<g>
					<path style="fill:#E28569;" d="M1399.471,383.646c0-3.954-3.158-7.16-7.054-7.16c-3.896,0-7.055,3.206-7.055,7.16
						s3.158,7.16,7.055,7.16C1396.313,390.806,1399.471,387.6,1399.471,383.646z"/>
				</g>
				<g>
					<path style="fill:#2F1A31;" d="M1372.083,383.646c0-3.954-3.159-7.16-7.054-7.16c-3.896,0-7.056,3.206-7.056,7.16
						s3.159,7.16,7.056,7.16C1368.924,390.806,1372.083,387.6,1372.083,383.646z"/>
				</g>
			</g>
			<g>
				<g>
					<path style="fill:#F7B686;" d="M754.348,823.032L754.348,823.032c-2.081-0.171-3.922,1.415-4.092,3.528l-2.632,32.786
						c-0.171,2.111,1.395,3.98,3.476,4.152l0,0c2.08,0.173,3.922-1.415,4.092-3.527l2.632-32.786
						C757.993,825.074,756.429,823.204,754.348,823.032z"/>
				</g>
				<g>
					<path style="fill:#F7B686;" d="M764.035,823.833L764.035,823.833c-2.082-0.172-3.923,1.416-4.094,3.528l-2.943,36.666
						c-0.169,2.113,1.395,3.982,3.477,4.154l0,0c2.081,0.172,3.922-1.416,4.092-3.528l2.943-36.666
						C767.679,825.874,766.115,824.006,764.035,823.833z"/>
				</g>
				<g>
					<path style="fill:#F7B686;" d="M768.17,804.966l-1.122,0.764c-2.097,1.428-2.661,4.337-1.255,6.465l13.7,20.731
						c1.406,2.128,4.272,2.701,6.369,1.273l1.122-0.765c2.097-1.427,2.661-4.336,1.254-6.463l-13.699-20.731
						C773.134,804.112,770.267,803.539,768.17,804.966z"/>
				</g>
				<g>
					<path style="fill:#F7B686;" d="M773.722,824.635L773.722,824.635c-2.081-0.172-3.923,1.416-4.093,3.527l-2.359,29.392
						c-0.169,2.112,1.395,3.982,3.476,4.154l0,0c2.082,0.171,3.923-1.416,4.093-3.527l2.359-29.393
						C777.366,826.676,775.803,824.807,773.722,824.635z"/>
				</g>
				<g>
					<path style="fill:#F7B686;" d="M749.273,803.816c0,0-12.471,18.021-8.009,32.997c1.544,5.185,30.125,6.747,33.172,1.527
						c3.05-5.218,2.736-25.227,2.736-25.227L749.273,803.816z"/>
				</g>
				<g>
					<path style="fill:#F7B686;" d="M744.729,822.209L744.729,822.209c-2.076-0.173-3.914,1.412-4.084,3.52l-2.354,29.331
						c-0.169,2.107,1.393,3.973,3.469,4.145l0,0c2.076,0.171,3.915-1.413,4.084-3.521l2.354-29.331
						C748.368,824.244,746.807,822.379,744.729,822.209z"/>
				</g>
			</g>
			<g>
				<g>
					<path style="fill:#F7B686;" d="M782.011,817.307c14.685-40.31,38.875-97.065,70.732-138.535
						c7.382-9.608,10.339-13.167,15.422-18.125c4.09-3.989,1.817-15.844-4.833-23.021c-6.239-6.735-18.099-9.16-20.56-7.346
						c-4.186,3.085-9.54,9.726-17.937,20.298c-29.18,36.735-54.338,87.622-77.19,155.853L782.011,817.307z"/>
				</g>
			</g>
			<g style="opacity:0.5;">
				<path style="fill:#E08B65;" d="M798.348,721.777c-0.653,0-1.284-0.136-1.869-0.406c-2.994-1.382-3.871-5.982-1.956-10.254
					c1.136-2.532,3.059-4.511,5.145-5.292c1.333-0.5,2.641-0.485,3.78,0.041c2.994,1.383,3.871,5.983,1.955,10.255
					c-1.135,2.532-3.059,4.51-5.145,5.291C799.61,721.655,798.968,721.777,798.348,721.777z M801.575,707.053
					c-0.432,0-0.886,0.086-1.352,0.26c-1.697,0.637-3.286,2.302-4.251,4.454c-1.535,3.423-0.997,7.16,1.172,8.162
					c0.747,0.345,1.631,0.343,2.557-0.005c1.698-0.635,3.286-2.3,4.251-4.452c1.535-3.423,0.998-7.16-1.171-8.162
					C802.409,707.138,802.003,707.053,801.575,707.053z"/>
			</g>
			<g>
				<path style="fill:#F7B686;" d="M922.508,606.26l4.393-19.375l1.279-5.641l7.518-33.167l3.666,32.15l2.198,19.297l0.696,6.108
					c0.473,4.146,1.566,10.016,4.871,13.4c1.34,1.371,11.34,4.472,2.688,9.158c-10.776,5.84-32.162-0.155-40.809-9.468
					C909.069,618.705,921.087,612.523,922.508,606.26z"/>
			</g>
			<g>
				<path style="fill:#F7B686;" d="M962.945,554.416c-3.856-18.838-19.458-31.477-34.851-28.231
					c-15.392,3.245-24.744,21.147-20.889,39.983c3.854,18.837,19.458,31.477,34.85,28.232
					C957.449,591.154,966.802,573.254,962.945,554.416z"/>
			</g>
			<g>
				<path style="fill:#2F1A31;" d="M950.172,546.984c16.275-0.607,23.45-10.707,22.992-19.52
					c-0.588-11.303-8.322-20.771-16.166-15.96c-7.845,4.811-5.1-5.739-13.018-6.24c-14.8-0.933-16.773,9.849-28.724,11.268
					c-15.764,1.873-31.831,29.977-17.148,48.494C898.107,565.025,937.318,547.464,950.172,546.984z"/>
			</g>
			<g>
				<path style="fill:#2F1A31;" d="M963.788,534.513c0,0-16.098,18.255-13.112,27.617c2.986,9.362,2.683,13.142-7.073,18.992
					c-9.756,5.85-0.205,13.436-13.659,15.051c-13.453,1.615-31.175-13.325-33.122-39.937c-1.085-14.838,6.599-25.179,6.599-25.179
					L963.788,534.513z"/>
			</g>
			<g>
				<path style="fill:#F7B686;" d="M959.4,561.047c-2.173-2.681-5.848-3.258-8.209-1.286c-2.36,1.97-2.514,5.741-0.341,8.422
					c2.173,2.681,5.848,3.258,8.209,1.287C961.42,567.5,961.572,563.729,959.4,561.047z"/>
			</g>
			<g>
				<path style="fill:#2F1A31;" d="M901.53,561.239c-0.049,0-0.1-0.009-0.146-0.026c-0.22-0.081-0.332-0.324-0.251-0.543
					c1.403-3.803,5.247-5.453,5.41-5.521c0.215-0.093,0.462,0.011,0.553,0.226c0.091,0.214-0.01,0.462-0.226,0.553
					c-0.036,0.016-3.671,1.582-4.945,5.034C901.862,561.133,901.7,561.239,901.53,561.239z"/>
			</g>
			<g>
				<path style="fill:#2F1A31;" d="M906.99,553.911c-0.027,0-0.057-0.003-0.086-0.008c-0.049-0.011-4.989-1.082-5.168-5.255
					c-0.01-0.233,0.171-0.43,0.404-0.439c0.226-0.006,0.431,0.17,0.44,0.404c0.151,3.522,4.452,4.452,4.496,4.461
					c0.228,0.048,0.374,0.271,0.327,0.5C907.362,553.773,907.187,553.911,906.99,553.911z"/>
			</g>
			<g>
				<path style="fill:#2F1A31;" d="M954.291,511.018c-0.45,0-0.884-0.117-1.297-0.353c-2.285-1.302-3.082-5.876-3.115-6.07
					c-0.039-0.229,0.116-0.447,0.347-0.487c0.231-0.037,0.447,0.117,0.486,0.347c0.008,0.044,0.764,4.373,2.701,5.478
					c0.509,0.289,1.048,0.318,1.647,0.086c1.195-0.46,2.096-1.2,2.968-1.916c1.726-1.417,3.509-2.882,7.375-1.931
					c0.227,0.055,0.365,0.284,0.31,0.51c-0.057,0.227-0.286,0.364-0.512,0.31c-3.457-0.851-4.93,0.361-6.637,1.764
					c-0.924,0.759-1.878,1.544-3.2,2.053C954.998,510.947,954.639,511.018,954.291,511.018z"/>
			</g>
			<g>
				<path style="fill:#2F1A31;" d="M915.519,515.065c-0.325,0-0.655-0.014-0.988-0.042c-0.232-0.021-0.404-0.226-0.384-0.459
					c0.019-0.232,0.222-0.399,0.458-0.383c6.264,0.543,11.211-4.873,11.26-4.928c0.156-0.174,0.422-0.188,0.597-0.032
					c0.173,0.155,0.188,0.423,0.032,0.597C926.293,510.042,921.715,515.065,915.519,515.065z"/>
			</g>
			<g>
				<path style="fill:#2F1A31;" d="M955.402,570.969c-1.409,0-3.591-0.616-5.463-3.795c-0.058-0.097-0.025-0.221,0.072-0.278
					c0.095-0.057,0.221-0.024,0.278,0.071c2.854,4.842,6.279,3.444,6.424,3.382c0.103-0.045,0.223,0.003,0.267,0.108
					c0.044,0.102-0.003,0.222-0.106,0.267C956.86,570.729,956.281,570.969,955.402,570.969z"/>
			</g>
			<g>
				<g>
					<path style="fill:#F7B686;" d="M1119.31,612.758c3.262-7.992-22.08-21.744-22.08-21.744
						c-2.771-0.605-24.11,48.943-70.388,53.331c-16.481,1.563-47.338-15.629-50.384-18.841
						c-0.406-0.428-27.502,25.042-27.502,25.042c5.518,5.818,17.707,26.484,39.44,34.383
						C1033.354,701.268,1106.406,666.433,1119.31,612.758z"/>
				</g>
			</g>
			<g>
				<path style="fill:#2F1A31;" d="M918.8,1149.598c0,0,0.3,12.17,8.415,15.604c8.113,3.433,31.624,6.53,22.84,14.354
					c-5.041,4.49-28.798,1.59-35.505,1.59c-6.708,0-13.004,2.968-17.988-1.59c-5.484-5.012,0-29.958,0-29.958
					s5.788,3.059,10.992,2.923C915.055,1152.322,918.8,1149.598,918.8,1149.598z"/>
			</g>
			<g>
				<path style="fill:#6F4975;" d="M988.805,782.305c0,0,1.618,54.925-15.651,160.292c-12.469,76.066-27.187,152.718-34.408,189.464
					c-2.584,13.146-13.476,22.757-26.386,23.283l-6.936,0.282c-13.958,0.568-25.286-11.601-24.268-26.068l17.518-248.612
					l4.318-81.826L988.805,782.305z"/>
			</g>
			<g>
				<path style="fill:#2F1A31;" d="M841.952,1149.598c0,0,0.301,12.17,8.414,15.604c8.114,3.433,31.624,6.53,22.84,14.354
					c-5.04,4.49-28.797,1.59-35.504,1.59c-6.708,0-13.005,2.968-17.989-1.59c-5.482-5.012,0-29.958,0-29.958
					s5.789,3.059,10.993,2.923C838.207,1152.322,841.952,1149.598,841.952,1149.598z"/>
			</g>
			<g>
				<path style="fill:#6F4975;" d="M911.956,782.305c0,0,1.619,54.925-15.651,160.292c-12.469,76.066-27.187,152.718-34.408,189.464
					c-2.582,13.146-13.475,22.757-26.385,23.283l-6.936,0.282c-13.958,0.568-25.288-11.601-24.268-26.068l17.518-248.612
					l4.317-81.826L911.956,782.305z"/>
			</g>
			<g>
				<path style="fill:#E28569;" d="M858.227,638.646c0,0,13.315-33.176,76.45-24.523c91.05,12.478,69.051,76.925,61.44,160.018
					c0,0-83.222-3.37-170.661,3.01C825.456,777.15,831.191,688.383,858.227,638.646z"/>
			</g>
			<g>
				<path style="fill:#E28569;" d="M823.031,637.198c0,0,10.834,36.188,39.314,46.828c27.068,10.112,122.141,27.62,142.033,13.082
					c26.634-19.466,12.46-59.91,12.46-59.91s-17.892-5.115-60.258-18.454c-3.981-1.259-8.137-2.358-12.477-3.273
					c-7.288-1.53-14.674-2.294-21.977-2.685C854.846,609.188,823.031,637.198,823.031,637.198z"/>
			</g>
			<g>
				<path style="fill:#2F1A31;" d="M892.709,966.119c-0.03,0-0.061-0.002-0.094-0.008c-0.287-0.052-0.477-0.326-0.427-0.613
					c5.213-29.127,0.179-52.571-4.963-67.11c-5.565-15.737-12.434-24.69-12.501-24.777c-0.18-0.231-0.138-0.563,0.093-0.741
					c0.231-0.178,0.563-0.136,0.74,0.094c0.278,0.358,27.726,36.534,17.671,92.722C893.183,965.94,892.961,966.119,892.709,966.119z
					"/>
			</g>
			<g>
				<path style="fill:#6F4975;" d="M825.456,777.15c0,0,47.611-36.92,49.685-84.646c2.074-47.725,25.652-42.074,41.397-40.817
					c15.742,1.256,37.398,0,39.873,13.187c2.475,13.188-7.425,47.099,12.993,77.868c20.418,30.771,26.714,31.398,26.714,31.398
					l-13.254,99.146l-159.677-18.139L825.456,777.15z"/>
			</g>
			<g>
				<path style="fill:#6F4975;" d="M897.633,655.036l-1.65-42.352c0,0,8.365-2.597,13.67-0.217l-0.975,45.093L897.633,655.036z"/>
			</g>
			<g>
				<path style="fill:#6F4975;" d="M937.231,657.56l23.328-37.014c0,0,14.291-1.55,15.899,4.958l-27.502,41.674L937.231,657.56z"/>
			</g>
			<g>
				<g>
					<path style="fill:#2F1A31;" d="M1098.762,549.593L1098.762,549.593c-0.955,0.48-2.124,0.079-2.598-0.89l-26.271-53.882
						c-0.474-0.97-0.078-2.156,0.877-2.636l0,0c0.956-0.48,2.125-0.079,2.598,0.891l26.271,53.881
						C1100.111,547.927,1099.717,549.112,1098.762,549.593z"/>
				</g>
				<g>
					<path style="fill:#E28569;" d="M1124.831,603.06L1124.831,603.06c-5.234,2.629-11.637,0.435-14.226-4.879l-24.188-49.606
						c-2.591-5.313-0.427-11.811,4.807-14.44l0,0c5.234-2.629,11.637-0.434,14.227,4.879l24.187,49.607
						C1132.229,593.935,1130.065,600.432,1124.831,603.06z"/>
				</g>
			</g>
			<g>
				<g>
					<path style="fill:#F7B686;" d="M1121.015,595.54l0.857,0.618c1.468,1.056,3.52,0.701,4.561-0.789l11.514-16.479
						c1.041-1.49,0.692-3.572-0.776-4.628l-0.856-0.618c-1.468-1.056-3.521-0.701-4.561,0.789l-11.515,16.479
						C1119.198,592.402,1119.548,594.484,1121.015,595.54z"/>
				</g>
				<g>
					<path style="fill:#F7B686;" d="M1113.141,589.875l0.749,0.539c1.497,1.077,3.592,0.715,4.653-0.806l14.988-21.453
						c1.063-1.52,0.706-3.644-0.792-4.722l-0.749-0.539c-1.497-1.078-3.591-0.716-4.652,0.803l-14.988,21.454
						C1111.287,586.671,1111.644,588.797,1113.141,589.875z"/>
				</g>
				<g>
					<path style="fill:#F7B686;" d="M1100.473,604.227l1.349-0.075c2.521-0.142,4.47-2.352,4.329-4.91l-1.359-24.923
						c-0.139-2.559-2.315-4.536-4.837-4.393l-1.349,0.075c-2.521,0.142-4.47,2.351-4.33,4.909l1.36,24.924
						C1095.774,602.392,1097.952,604.37,1100.473,604.227z"/>
				</g>
				<g>
					<path style="fill:#F7B686;" d="M1105.588,584.438L1105.588,584.438c1.703,1.227,4.085,0.815,5.292-0.914l16.807-24.056
						c1.207-1.728,0.802-4.145-0.9-5.372l0,0c-1.703-1.225-4.086-0.813-5.294,0.915l-16.806,24.056
						C1103.479,580.795,1103.884,583.212,1105.588,584.438z"/>
				</g>
				<g>
					<path style="fill:#F7B686;" d="M1116.146,615.003c0,0,19.785-9.039,23.478-24.23c1.278-5.258-18.192-27.114-23.438-24.205
						c-5.245,2.909-19.359,25.989-19.359,25.989L1116.146,615.003z"/>
				</g>
				<g>
					<path style="fill:#F7B686;" d="M1128.753,601.146l1.095,0.788c1.398,1.006,3.355,0.668,4.347-0.751l9.265-13.262
						c0.992-1.419,0.659-3.403-0.74-4.411l-1.094-0.787c-1.399-1.007-3.355-0.669-4.347,0.75l-9.265,13.262
						C1127.021,598.153,1127.354,600.139,1128.753,601.146z"/>
				</g>
			</g>
		</g>
	</g>
	<g>
		<g>
			<path style="fill:#2F1A31;" d="M2020.451,1240.267c0,0-0.328,13.106-9.196,16.804c-8.868,3.696-34.563,7.033-24.962,15.459
				c5.51,4.835,31.474,1.71,38.803,1.71c7.332,0,14.214,3.195,19.662-1.711c5.992-5.398-0.002-32.262-0.002-32.262
				s-6.325,3.295-12.014,3.147C2024.543,1243.201,2020.451,1240.267,2020.451,1240.267z"/>
		</g>
		<g>
			<path style="fill:#2F1A31;" d="M2173.274,1240.653c0,0,3.692,12.579-3.622,18.809s-30.762,17.257-19.045,22.347
				c6.723,2.92,30.49-7.987,37.471-10.227c6.98-2.24,14.509-1.301,18.197-7.638c4.057-6.97-9.857-30.719-9.857-30.719
				s-5.018,5.071-10.479,6.669C2178.068,1242.197,2173.274,1240.653,2173.274,1240.653z"/>
		</g>
		<g>
			<g>
				<path style="fill:#E08B65;" d="M2015.147,965.959c-0.724,0-1.472-0.166-2.219-0.499c-2.085-0.928-3.932-3.069-4.938-5.728
					c-1.697-4.484-0.521-9.131,2.621-10.357c1.197-0.465,2.533-0.399,3.861,0.192c2.086,0.929,3.933,3.069,4.939,5.729l0,0
					c1.697,4.485,0.521,9.131-2.621,10.356C2016.266,965.857,2015.714,965.959,2015.147,965.959z M2012.254,950.697
					c-0.367,0-0.72,0.064-1.051,0.193c-2.277,0.888-3.052,4.673-1.691,8.266c0.856,2.262,2.381,4.063,4.078,4.818
					c0.926,0.412,1.827,0.469,2.609,0.163c2.277-0.888,3.052-4.674,1.691-8.266h0.001c-0.857-2.263-2.382-4.063-4.079-4.818
					C2013.279,950.816,2012.754,950.697,2012.254,950.697z"/>
			</g>
			<g>
				<g>
					<path style="fill:#EAA678;" d="M1774.042,894.681l-8.663-26.58c2.142-1.519,72.149-35.85,125.075-113.76
						c0,0,2.066-4.271,19.744,4.833c18.119,9.33,16.757,16.432,16.757,16.432C1884.387,857.717,1775.267,893.813,1774.042,894.681z"
						/>
				</g>
			</g>
			<g>
				<path style="fill:#436E8E;" d="M1954.66,919.357c2.274,25.072,9.181,82.213,15.752,121.729
					c12.641,75.978,27.565,152.535,34.878,189.237c2.624,13.131,13.663,22.728,26.755,23.248l7.031,0.281
					c14.145,0.571,25.633-11.579,24.602-26.034l-16.467-230.146l-1.303-18.16l-3.156-59.002
					c-10.878,3.485,23.891-12.729,16.469-5.296l15.95-14.01C2075.171,901.206,1980.564,890.229,1954.66,919.357z"/>
			</g>
			<g>
				<path style="fill:#436E8E;" d="M2013.514,920.815l33.697,76.859l101.569,231.658c5.579,12.731,18.461,20.445,32.013,19.162
					l5.91-0.561c13.944-1.322,23.14-15.376,19.043-29.099c0,0-80.98-316.982-84.727-328.302c0,0-44.32,7.567-75.322,17.503
					C2034.818,911.523,2020.937,913.382,2013.514,920.815z"/>
			</g>
			<g>
				<path style="fill:#E28569;" d="M2060.265,708.725c0,0-23.118-33.87-74.887-22.285c-57.005,12.757-60.87,43.685-54.095,103.099
					c4.292,37.636,17.143,108.016,26.725,161.29c0,0,50.154-60.851,145.771-117.262
					C2103.779,833.566,2081.943,740.12,2060.265,708.725z"/>
			</g>
			<g>
				<path style="fill:#E28569;" d="M2102.072,826.541c0,0-9.542,12.283-35.773,0c-31.048-14.539-93.236-45.829-118.62-43.897
					c-25.385,1.932-59.518-32.921-59.518-32.921s32.625-38.361,75.052-56.316c3.985-1.693,8.168-3.242,12.561-4.621
					c7.375-2.311,14.965-3.648,22.439-5.003C2089.866,667.165,2102.072,826.541,2102.072,826.541z"/>
			</g>
			<g>
				<g>
					<path style="fill:#F7B686;" d="M1989.116,691.389c1.233-5.456-3.017-4.316-5.961-8.281l-9.11-12.27l-2.651-3.571
						l-15.593-21.002l7.287,23.784l4.375,14.274l1.385,4.519c0.94,3.067,0.268,3.786-1.051,7.203
						c-0.534,1.384-2.409,6.877,2.771,7.373C1975.213,703.863,1987.544,698.345,1989.116,691.389z"/>
				</g>
				<g>
					<path style="fill:#2F1A31;" d="M1977.332,663.604c0,0,19.972-16.486,10.242-32.283c-9.732-15.796-15.199,23.172-15.199,23.172
						l2.377,9.265L1977.332,663.604z"/>
				</g>
				<g>
					<path style="fill:#2F1A31;" d="M1973.98,670.432c0.025,0.135,0.048,0.271,0.064,0.406c1.185,7.933-6.521,13.517-6.521,13.517
						l-0.062-0.031l-4.375-14.274c2.396-1.528,5.894-3.334,8.306-2.782C1972.654,667.556,1973.618,668.486,1973.98,670.432z"/>
				</g>
				<g>
					<path style="fill:#F7B686;" d="M1935.051,657.954c-3.234-14.217,3.701-27.918,15.491-30.601
						c11.791-2.683,23.972,6.668,27.206,20.886c3.236,14.217-3.7,27.918-15.49,30.6
						C1950.467,681.523,1938.285,672.172,1935.051,657.954z"/>
				</g>
				<g>
					<path style="fill:#2F1A31;" d="M1973.938,645.948c0,0-6.262,3.87-11-0.11c-4.738-3.979-8.027-7.669-19.604-2.886
						c-11.578,4.783-23.644,1.413-25.46-5.023c-1.816-6.437,3.85-10.866,10.854-10.059c7.002,0.809-1.238-3.607,4.114-9.859
						c5.354-6.252,17.267,1.423,23.644-1.414c6.375-2.836,28.465-4.128,31.09,14.724L1973.938,645.948z"/>
				</g>
				<g>
					<path style="fill:#F7B686;" d="M1978.35,649.999c-1.592,2.094-4.4,2.639-6.271,1.217c-1.872-1.423-2.099-4.274-0.508-6.368
						c1.593-2.095,4.4-2.64,6.272-1.218C1979.715,645.053,1979.94,647.904,1978.35,649.999z"/>
				</g>
				<g>
					<path style="fill:#FFFFFF;" d="M1930.835,636.391c-0.552,0-1.079-0.072-1.566-0.231c-2.302-0.755-2.886-1.969-2.665-2.855
						c0.261-1.049,1.725-1.929,3.717-1.584c3.428,0.595,5.379-0.434,5.398-0.444l0.142,0.264c-0.083,0.044-2.069,1.085-5.591,0.475
						c-1.826-0.317-3.148,0.445-3.376,1.361c-0.188,0.756,0.362,1.809,2.469,2.499c4.355,1.428,12.378-4.757,12.458-4.819
						l0.184,0.235C1941.707,631.523,1935.396,636.391,1930.835,636.391z"/>
				</g>
				<g>
					<path style="fill:#FFFFFF;" d="M1951.924,622.219c-4.874,0-9.416-2.51-9.721-2.911l0.238-0.182l-0.119,0.091l0.119-0.091
						c0.246,0.303,6.939,4.15,12.933,2.301c1.97-0.608,3.708-1.366,5.389-2.101c3.386-1.478,6.312-2.756,9.441-1.918l-0.077,0.287
						c-3.027-0.809-5.91,0.447-9.245,1.904c-1.688,0.737-3.435,1.5-5.42,2.113C1954.301,622.071,1953.102,622.219,1951.924,622.219z
						"/>
				</g>
				<g>
					<path style="fill:#FFFFFF;" d="M1982.055,629.7c-0.998,0-3.115-1.926-3.619-3.157c-0.273-0.67,0.008-0.941,0.201-1.044
						c1.567-0.821,3.826,2.884,3.922,3.042l0.02,0.048c0.149,0.769-0.107,1.017-0.35,1.088
						C1982.176,629.693,1982.117,629.7,1982.055,629.7z M1979.129,625.678c-0.125,0-0.242,0.027-0.353,0.086
						c-0.068,0.036-0.276,0.147-0.063,0.666c0.502,1.229,2.76,3.156,3.431,2.962c0.217-0.065,0.201-0.421,0.146-0.72
						C1981.729,627.752,1980.215,625.678,1979.129,625.678z"/>
				</g>
				<g>
					<g>
						<path style="fill:#060633;" d="M1952.157,653.485c-0.131-0.026-0.249-0.114-0.31-0.246c-0.104-0.221-0.008-0.485,0.213-0.589
							c0.131-0.061,3.027-1.763,5.809,0.956c0.175,0.172,0.188,0.449,0.02,0.628c-0.168,0.179-0.416,0.145-0.628,0.02
							c-2.111-1.253-4.716-0.849-4.824-0.799C1952.346,653.496,1952.249,653.506,1952.157,653.485z"/>
					</g>
				</g>
				<g>
					<path style="fill:#060633;" d="M1955.938,658.158c0.093,1.056-0.452,1.965-1.218,2.033c-0.766,0.066-1.462-0.732-1.554-1.788
						c-0.094-1.056,0.451-1.966,1.217-2.032C1955.149,656.303,1955.845,657.104,1955.938,658.158z"/>
				</g>
				<g>
					<g>
						<path style="fill:#060633;" d="M1936.301,657.946c-0.103,0.018-0.215-0.022-0.302-0.125c-0.147-0.171-0.168-0.449-0.046-0.621
							c0.071-0.102,1.548-2.678,4.422-1.088c0.181,0.1,0.282,0.354,0.225,0.579c-0.061,0.223-0.247,0.276-0.438,0.232
							c-1.91-0.449-3.614,0.815-3.676,0.898C1936.438,657.892,1936.372,657.933,1936.301,657.946z"/>
					</g>
				</g>
				<g>
					<path style="fill:#060633;" d="M1941.674,660.808c0.489,0.941,0.331,1.989-0.351,2.344c-0.683,0.353-1.631-0.121-2.118-1.061
						c-0.488-0.939-0.331-1.989,0.351-2.343C1940.238,659.394,1941.187,659.868,1941.674,660.808z"/>
				</g>
				<g>
					<g>
						<path style="fill:#020202;" d="M1954.498,672.831c-2.051,0-3.568-0.485-3.604-0.497c-0.162-0.054-0.25-0.229-0.196-0.391
							c0.054-0.163,0.229-0.249,0.391-0.198c0.3,0.1,7.384,2.35,11.367-3.604c0.097-0.142,0.288-0.18,0.431-0.085
							c0.142,0.095,0.18,0.287,0.085,0.431C1960.591,672.043,1957.112,672.831,1954.498,672.831z"/>
					</g>
					<g>
						<path style="fill:#020202;" d="M1963.55,669.614c-0.139,0-0.265-0.093-0.3-0.233c-0.111-0.435-0.486-1.115-1.636-1.882
							l-0.085-0.059c-0.135-0.106-0.16-0.3-0.057-0.435c0.105-0.135,0.297-0.16,0.434-0.057c1.105,0.738,1.741,1.493,1.943,2.279
							c0.042,0.165-0.058,0.334-0.223,0.376C1963.601,669.611,1963.574,669.614,1963.55,669.614z"/>
					</g>
				</g>
				<g>
					<path style="fill:#FFFFFF;" d="M1938.578,675.568c-0.441,0-0.894-0.048-1.352-0.142c-3.246-0.672-6.459-3.661-8.593-7.995
						c-3.473-7.055-3.048-15.56,0.946-18.961c1.48-1.262,3.289-1.714,5.23-1.313c3.246,0.672,6.459,3.661,8.592,7.995l0,0
						c3.473,7.055,3.047,15.561-0.947,18.961C1941.325,675.076,1940.004,675.568,1938.578,675.568z M1933.47,647.938
						c-1.212,0-2.334,0.418-3.292,1.233c-3.694,3.145-4.016,11.152-0.718,17.852c2.01,4.082,4.983,6.887,7.952,7.501
						c1.651,0.341,3.19-0.043,4.446-1.112c3.692-3.143,4.015-11.152,0.718-17.852c-2.01-4.082-4.982-6.886-7.953-7.5
						C1934.232,647.981,1933.846,647.938,1933.47,647.938z"/>
				</g>
				<g style="opacity:0.3;">
					<path style="fill:#FFFFFF;" d="M1966.352,646.778c2.723,6.963,1.258,15.095-3.27,18.166c-4.529,3.07-10.407-0.085-13.129-7.048
						c-2.723-6.963-1.258-15.097,3.27-18.167C1957.751,636.66,1963.629,639.815,1966.352,646.778z"/>
				</g>
				<g style="opacity:0.3;">
					<path style="fill:#FFFFFF;" d="M1943.686,655.72c2.73,6.996,1.716,15.177-2.268,18.273c-3.983,3.098-9.427-0.063-12.158-7.058
						c-2.732-6.995-1.717-15.177,2.267-18.273S1940.954,648.725,1943.686,655.72z"/>
				</g>
				<g>
					<path style="fill:#FFFFFF;" d="M1958.684,666.435c-0.791,0-1.596-0.126-2.403-0.379c-3.372-1.054-6.289-4.139-8.003-8.464
						c-2.944-7.436-1.274-16.194,3.724-19.524c2.017-1.344,4.313-1.669,6.642-0.942c3.371,1.054,6.288,4.14,8.002,8.464l0,0
						c2.945,7.437,1.275,16.194-3.723,19.525C1961.604,665.992,1960.169,666.435,1958.684,666.435z M1956.246,637.672
						c-1.309,0-2.574,0.391-3.734,1.163c-4.656,3.102-6.171,11.364-3.377,18.419c1.587,4.005,4.36,6.967,7.42,7.924
						c2.054,0.642,4.078,0.355,5.856-0.83c4.655-3.102,6.171-11.364,3.376-18.418c-1.586-4.006-4.359-6.968-7.42-7.924
						C1957.654,637.782,1956.944,637.672,1956.246,637.672z"/>
				</g>
				<g>
					<path style="fill:#FFFFFF;" d="M1942.993,658.567c-0.204,0-0.41-0.072-0.574-0.22c-0.351-0.317-0.382-0.857-0.067-1.209
						c0.102-0.114,2.51-2.781,7.299-2.559c0.474,0.022,0.842,0.424,0.818,0.898c-0.021,0.475-0.432,0.846-0.898,0.819
						c-3.89-0.167-5.857,1.9-5.938,1.989C1943.461,658.473,1943.228,658.567,1942.993,658.567z"/>
				</g>
				<g>
					<path style="fill:#2F1A31;" d="M1987.75,631.485l-0.354-0.33c2.695-2.893,0.498-6.228,0.476-6.262l0.402-0.272
						C1988.299,624.659,1990.707,628.315,1987.75,631.485z"/>
				</g>
				<g>
					<path style="fill:#2F1A31;" d="M1991.943,635.459c-0.028-0.021-2.809-2.09-4.896-1.798l-0.066-0.481
						c2.279-0.309,5.133,1.802,5.254,1.892L1991.943,635.459z"/>
				</g>
			</g>
			<g>
				<path style="fill:#2F1A31;" d="M2074.227,763.846c-4.438,4.333-17.759-1.814-29.75-13.729
					c-11.992-11.913-18.115-25.084-13.678-29.416c4.439-4.332,17.76,1.815,29.752,13.729
					C2072.543,746.345,2078.666,759.515,2074.227,763.846z"/>
			</g>
			<g>
				<g>
					<path style="fill:#EAA678;" d="M1763.188,882.423L1763.188,882.423c-1.37-1.477-3.697-1.565-5.175-0.195l-19.385,17.977
						c-1.477,1.369-1.564,3.697-0.195,5.173l0,0c1.369,1.477,3.698,1.565,5.174,0.196l19.386-17.977
						C1764.469,886.227,1764.558,883.899,1763.188,882.423z"/>
				</g>
				<g>
					<path style="fill:#EAA678;" d="M1769.561,889.295L1769.561,889.295c-1.369-1.476-3.697-1.564-5.173-0.194l-25.131,23.304
						c-1.478,1.369-1.565,3.697-0.196,5.174l0,0c1.369,1.477,3.698,1.564,5.174,0.195l25.131-23.304
						C1770.843,893.101,1770.93,890.773,1769.561,889.295z"/>
				</g>
				<g>
					<path style="fill:#EAA678;" d="M1784.62,878.768l-1.287-0.196c-2.407-0.366-4.677,1.304-5.043,3.711l-3.567,23.447
						c-0.366,2.407,1.303,4.677,3.711,5.043l1.287,0.195c2.407,0.366,4.677-1.304,5.043-3.71l3.567-23.448
						C1788.697,881.403,1787.028,879.134,1784.62,878.768z"/>
				</g>
				<g>
					<path style="fill:#EAA678;" d="M1775.94,896.163L1775.94,896.163c-1.369-1.478-3.697-1.565-5.174-0.196l-20.546,19.053
						c-1.477,1.369-1.564,3.697-0.195,5.174l0,0c1.369,1.475,3.697,1.564,5.174,0.194l20.547-19.052
						C1777.223,899.967,1777.31,897.639,1775.94,896.163z"/>
				</g>
				<g>
					<path style="fill:#EAA678;" d="M1771.924,865.65c0,0-20.436,4.497-26.878,17.896c-2.229,4.637,11.895,28.811,17.412,27.141
						s23.332-20.347,23.332-20.347L1771.924,865.65z"/>
				</g>
				<g>
					<path style="fill:#EAA678;" d="M1756.973,875.667l-0.174-0.188c-1.318-1.422-3.561-1.506-4.982-0.188l-15.657,14.518
						c-1.422,1.319-1.507,3.562-0.188,4.983l0.175,0.188c1.317,1.422,3.561,1.507,4.981,0.188l15.657-14.519
						C1758.207,879.33,1758.292,877.089,1756.973,875.667z"/>
				</g>
			</g>
			<g>
				<g>
					<path style="fill:#96A7E2;" d="M1889.715,869.637l-14.197-0.559c0.007-0.169,0.613-17.561-3.485-35.047
						c-4.992-21.294-14.271-32.825-27.58-34.275c-11.287-1.228-19.467,2.658-25.021,11.878c-4.558,7.564-5.522,15.889-5.531,15.973
						l-14.131-1.489c0.089-0.853,2.329-20.983,16.813-32.685c7.962-6.434,17.855-9.06,29.407-7.801
						C1892.29,790.669,1889.843,866.415,1889.715,869.637z"/>
				</g>
				<g>
					<path style="fill:#2F1A31;" d="M1798.939,824.715c-0.358,1.554,2.885,3.63,7.245,4.639c4.361,1.008,8.187,0.566,8.546-0.987
						c0.359-1.552-2.885-3.629-7.245-4.638C1803.125,822.721,1799.299,823.163,1798.939,824.715z"/>
				</g>
			</g>
			<g>
				<path style="fill:#BED5DC;" d="M1910.302,886.94l-8.51,33.536c-1.187,4.677-5.338,7.995-10.161,8.121l-201.384,5.262
					c-4.766,0.125-9.046-2.896-10.524-7.428l-14.159-43.383c-2.232-6.838,2.737-13.901,9.927-14.111l215.332-6.296
					C1903.773,862.263,1913.488,874.382,1910.302,886.94z"/>
			</g>
			<g>
				<g>
					<path style="fill:#96A7E2;" d="M1671.07,1281.803h229.52c10.953,0,19.932-8.687,20.295-19.633l10.387-313.102
						c0.387-11.682-9.142-21.278-20.825-20.973l-246.019,6.43c-11.161,0.292-19.993,9.54-19.771,20.703l6.112,306.673
						C1650.988,1272.957,1660.015,1281.803,1671.07,1281.803z"/>
				</g>
				<g>
					<path style="fill:#6F4975;" d="M1888.038,1258.286h-197.849c-9.941,0-18.19-8.086-18.389-18.024l-5.269-264.356
						c-0.2-10.077,7.833-18.489,17.908-18.752l212.07-5.542c5.146-0.143,9.924,1.793,13.531,5.427
						c3.608,3.634,5.501,8.452,5.331,13.569l-8.953,269.896C1906.089,1250.475,1898.015,1258.286,1888.038,1258.286z
						 M1897.008,953.381c-0.15,0-0.299,0.002-0.45,0.006l-212.071,5.542c-9.102,0.237-16.359,7.838-16.179,16.94l5.269,264.357
						c0.18,8.979,7.632,16.285,16.613,16.285h197.849c9.014,0,16.308-7.058,16.606-16.065l8.954-269.897
						c0.153-4.622-1.558-8.977-4.817-12.259C1905.629,955.113,1901.462,953.381,1897.008,953.381z"/>
				</g>
				<g>
					
						<rect x="1634.429" y="1105.209" transform="matrix(0.0242 -0.9997 0.9997 0.0242 635.4985 2863.2336)" style="fill:#6F4975;" width="299.896" height="1.776"/>
				</g>
			</g>
			<g>
				<path style="fill:#436E8E;" d="M1959.475,963.135c0,0-32.778-150.507-32.895-166.492s-6.028-38.87,32.895-46.077
					c38.922-7.207,51.946-10.783,59.051,7.286c7.104,18.069,23.148,57.643,54.152,57.452c31.004-0.192,37.442,21.005,37.442,21.005
					l27.245,116.185L1959.475,963.135z"/>
			</g>
			<g>
				<path style="fill:#020202;" d="M2046.441,997.963l-9.754-23.418c-6.176-14.711-10.268-21.813-23.527-28.067l0.707-1.501
					c13.721,6.471,18.146,14.144,24.352,28.928l9.756,23.421L2046.441,997.963z"/>
			</g>
			<g>
				<g>
					<g>
						<path style="fill:#F7B686;" d="M1898.36,850.498l10.344,36.842c79.419-40.823,140.203-106.728,153.407-123.442
							c1.943-2.459,2.574-5.684,1.729-8.699c-1.292-4.603-4.137-11.66-10.307-18.458c-6.008-6.619-11.014-10.904-14.381-13.463
							c-2.463-1.872-5.959-1.478-7.91,0.925C2016.967,741.778,1966.95,815.24,1898.36,850.498z"/>
					</g>
				</g>
				<g>
					<path style="fill:#2F1A31;" d="M1886.355,902.924l-34.743-52.464c0,0-12.368,0.993-18.513-11.392
						c-6.143-12.383,3.896-10.033,8.936-5.917c5.04,4.118,11.289,1.521,11.722-3.649c0.433-5.169-3.643-14.04,3.195-14.197
						c6.836-0.158,14.161,14.786,6.574,27.009l33.884,51.167c0,0,28.801-3.991,29.17,21.472c0,0-5.462,7.729-9.186,0.942
						c-3.725-6.788-9.94-15.011-18.224-8.497c-8.282,6.513-8.351,9.128-5.513,14.19c2.838,5.061,10.088,9.022,5.614,12.359
						s-9.287,2.669-13.662-4.716C1881.233,921.846,1879.99,907.806,1886.355,902.924z"/>
				</g>
				<g>
					<g>
						<path style="fill:#F7B686;" d="M1895.418,879.639l0.551,0.769c1.233,1.717,0.836,4.13-0.88,5.362l-19.391,13.917
							c-1.716,1.232-4.128,0.836-5.36-0.881l-0.553-0.769c-1.232-1.717-0.836-4.13,0.881-5.361l19.39-13.918
							C1891.772,877.525,1894.185,877.922,1895.418,879.639z"/>
					</g>
					<g>
						<path style="fill:#F7B686;" d="M1888.937,870.606l0.632,0.882c1.211,1.687,0.821,4.056-0.864,5.265l-22.301,16.008
							c-1.687,1.21-4.056,0.821-5.265-0.864l-0.634-0.882c-1.21-1.685-0.82-4.055,0.865-5.265l22.301-16.009
							C1885.356,868.532,1887.727,868.921,1888.937,870.606z"/>
					</g>
					<g>
						<path style="fill:#F7B686;" d="M1904.921,856.387l-0.05,1.031c-0.149,3.005-2.729,5.341-5.734,5.191l-31.191-1.546
							c-3.004-0.148-5.34-2.728-5.191-5.733l0.051-1.031c0.149-3.004,2.729-5.34,5.733-5.191l31.192,1.546
							C1902.734,850.803,1905.07,853.383,1904.921,856.387z"/>
					</g>
					<g>
						<path style="fill:#F7B686;" d="M1882.535,861.688l0.552,0.77c1.232,1.717,0.836,4.129-0.881,5.36l-19.646,14.102
							c-1.716,1.232-4.129,0.835-5.36-0.881l-0.552-0.768c-1.233-1.717-0.837-4.13,0.88-5.362l19.646-14.102
							C1878.89,859.575,1881.303,859.972,1882.535,861.688z"/>
					</g>
					<g>
						<path style="fill:#F7B686;" d="M1917.104,873.882c0,0-9.993,22.547-26.98,26.842c-5.881,1.487-30.485-20.503-27.262-26.482
							c3.224-5.981,28.979-22.174,28.979-22.174L1917.104,873.882z"/>
					</g>
					<g>
						<path style="fill:#F7B686;" d="M1901.678,888.313l0.87,1.213c1.141,1.591,0.774,3.826-0.817,4.969l-14.087,10.112
							c-1.592,1.142-3.827,0.774-4.97-0.817l-0.869-1.211c-1.142-1.591-0.774-3.827,0.816-4.969l14.088-10.112
							C1898.3,886.356,1900.536,886.724,1901.678,888.313z"/>
					</g>
				</g>
			</g>
			<g>
				<path style="fill:#436E8E;" d="M1954.552,694.516c0,0-14.789,49.286-14.112,69.268l12.112-2.219c0,0,9.003-58.167,10.661-68.158
					C1963.213,693.406,1955.753,690.393,1954.552,694.516z"/>
			</g>
			<g>
				<path style="fill:#436E8E;" d="M1992.846,751.13c-0.222-1.333-6.561-42.649,2.271-66.394c0,0,3.946-4.126,8.387-2.168
					c0,0-10.214,48.801-1.11,68.561h-7.276H1992.846z"/>
			</g>
			<g>
				<path style="fill:#2F1A31;" d="M1950.552,765.227c0,0,3.775-3.451,2.388-6.166c-1.389-2.716-3.72-3.381-5.939-2.493
					c-2.221,0.888-2.471,4.559-1.735,6.331C1946.002,764.672,1949.22,766.738,1950.552,765.227z"/>
			</g>
			<g>
				<path style="fill:#2F1A31;" d="M2001.505,753.34c0,0-1.816-3.765-4.535-4.505c-2.718-0.74-4.938,1.61-4.643,4.505
					c0.297,2.896,2.032,4.106,4.643,3.944C1999.58,757.124,2002.096,755.625,2001.505,753.34z"/>
			</g>
		</g>
	</g>
	<g>
		<g>
			<path style="fill:#E28569;" d="M587.417,1267.803l6.271,55.29c0.626,5.524,5.235,9.695,10.715,9.695h169.516
				c5.707,0,10.426-4.513,10.766-10.295l3.375-57.429c0.373-6.342-4.634-11.672-10.894-11.598l-179.16,2.138
				C591.611,1255.682,586.685,1261.355,587.417,1267.803z"/>
		</g>
		<g>
			<path style="fill:#2F1A31;" d="M652.229,1246.182l-9.234-2.637l4.858-17.016c2.284-8.005,9.637-13.596,17.878-13.596h45.461
				c9.289,0,17.219,7.02,18.445,16.329l1.973,14.974l-9.521,1.254l-1.974-14.973c-0.599-4.55-4.435-7.981-8.924-7.981h-45.461
				c-3.975,0-7.529,2.727-8.643,6.63L652.229,1246.182z"/>
		</g>
		<g>
			<path style="fill:#6F4975;" d="M574.929,1251.305v6.713c0,5.78,4.579,10.486,10.274,10.561l200.89,2.582
				c5.797,0.074,10.536-4.676,10.536-10.56v-7.104c0-5.787-4.59-10.497-10.293-10.559l-200.89-2.192
				C579.655,1240.682,574.929,1245.429,574.929,1251.305z"/>
		</g>
	</g>
	<g>
		<g>
			<path style="fill:#E28569;" d="M1140.139,876.003l6.271,55.29c0.626,5.525,5.234,9.694,10.715,9.694h169.515
				c5.707,0,10.427-4.512,10.767-10.294l3.375-57.429c0.372-6.342-4.634-11.672-10.894-11.598l-179.162,2.138
				C1144.333,863.881,1139.407,869.555,1140.139,876.003z"/>
		</g>
		<g>
			<path style="fill:#2F1A31;" d="M1204.951,854.382l-9.234-2.636l4.858-17.016c2.285-8.005,9.637-13.597,17.877-13.597h45.462
				c9.289,0,17.219,7.021,18.443,16.329l1.974,14.974l-9.521,1.254l-1.973-14.973c-0.6-4.549-4.437-7.98-8.924-7.98h-45.462
				c-3.975,0-7.529,2.727-8.644,6.629L1204.951,854.382z"/>
		</g>
		<g>
			<path style="fill:#6F4975;" d="M1127.65,859.506v6.712c0,5.78,4.578,10.486,10.272,10.561l200.891,2.582
				c5.798,0.073,10.537-4.676,10.537-10.561v-7.102c0-5.788-4.591-10.498-10.293-10.561l-200.89-2.191
				C1132.377,848.883,1127.65,853.629,1127.65,859.506z"/>
		</g>
	</g>
	<g>
		<g>
			<g>
				<path style="fill:#F7B686;" d="M1471.443,960.304c-60.745,36.158-133.241,32.263-183.373,22.617l7.737-38.721
					c60.163,11.56,102.488,0.265,141.166-21.731C1451.567,914.158,1496.488,945.39,1471.443,960.304z"/>
			</g>
		</g>
		<g>
			<path style="fill:#96A7E2;" d="M1087.34,1292.105c28.149,14.93,210.522,5.602,277.953,1.576
				c14.108-0.843,25.143-12.665,25.195-27.01c0.235-63.402,0.422-228.196,0.491-295.488c0.017-16.347-12.82-29.712-28.923-30.109
				c-60.787-1.5-200.083-4.489-248.45-5.289c-9.415-0.155-17.192,7.407-17.45,16.96
				C1094.232,1023.905,1061.396,1278.346,1087.34,1292.105z"/>
		</g>
		<g>
			<path style="fill:#BDD1F9;" d="M1219.54,972.719c-1.334-5.656-6.766-10.531-12.496-10.531s-11.996,1.644-11.996,12.175
				c0,5.817,6.266,8.888,11.996,8.888S1221.396,980.592,1219.54,972.719z"/>
		</g>
		<g>
			<path style="fill:#BDD1F9;" d="M1259.447,972.719c-1.334-5.656-6.765-10.531-12.496-10.531c-5.73,0-11.997,1.644-11.997,12.175
				c0,5.817,6.267,8.888,11.997,8.888C1252.683,983.25,1261.304,980.592,1259.447,972.719z"/>
		</g>
		<g>
			<path style="fill:#BDD1F9;" d="M1298.427,972.719c-1.334-5.656-6.765-10.531-12.497-10.531c-5.729,0-11.996,1.644-11.996,12.175
				c0,5.817,6.267,8.888,11.996,8.888C1291.662,983.25,1300.282,980.592,1298.427,972.719z"/>
		</g>
		<g>
			<path style="fill:#BDD1F9;" d="M1334.313,972.719c-1.334-5.656-6.765-10.531-12.496-10.531s-11.997,1.644-11.997,12.175
				c0,5.817,6.266,8.888,11.997,8.888S1336.169,980.592,1334.313,972.719z"/>
		</g>
		<g>
			<path style="fill:#2F1A31;" d="M1166.493,953.604l-41.224,1.615c-3.721,0.146-6.728,3.129-6.955,6.902l-1.324,21.91
				c-0.269,4.452,3.397,8.122,7.78,7.787l42.547-3.25c3.781-0.289,6.705-3.488,6.705-7.337v-20.276
				C1174.022,956.78,1170.604,953.442,1166.493,953.604z"/>
		</g>
		<g>
			<path style="fill:#2F1A31;" d="M1356.825,1133.543c0-62.846-50.536-120.377-112.116-113.792
				c-76.363,8.165-112.117,50.946-112.117,113.792s50.196,113.793,112.117,113.793
				C1306.629,1247.336,1356.825,1196.389,1356.825,1133.543z"/>
		</g>
		<g>
			<path style="fill:#BDD1F9;" d="M1244.709,1255.499c-66.257,0-120.161-36.071-120.161-121.956
				c0-67.247,24.827-127.601,120.161-121.956c81.044,4.798,117.923,54.747,120.159,121.956
				C1367.826,1222.358,1310.966,1255.499,1244.709,1255.499z M1244.709,1027.916c-66.975-5.682-99.209,57.867-99.209,116.111
				s42.391,103.317,99.209,95.144c67.401-9.696,96.306-53.811,96.306-112.054
				C1341.015,1068.873,1302.095,1027.916,1244.709,1027.916z"/>
		</g>
		<g>
			<path style="fill:#BDD1F9;" d="M1332.351,1173.138h16.431v-74.947h-21.407c-8.43,0-15.264,6.835-15.264,15.264v39.443
				C1312.11,1164.076,1321.172,1173.138,1332.351,1173.138z"/>
		</g>
		<g>
			<path style="fill:#2F1A31;" d="M1406.938,1287.676c0,0-0.356,14.404-9.96,18.467c-9.604,4.064-37.428,7.73-27.031,16.991
				c5.966,5.313,34.082,1.881,42.021,1.881s15.392,3.511,21.291-1.881c6.489-5.933,0-35.458,0-35.458s-6.851,3.621-13.012,3.46
				C1411.369,1290.901,1406.938,1287.676,1406.938,1287.676z"/>
		</g>
		<g>
			<path style="fill:#2F1A31;" d="M1718.849,1275.135c0,0,14.193,0.319,18.224,10.055s7.723,37.967,16.817,27.388
				c5.219-6.071,1.756-34.598,1.732-42.653c-0.022-8.058,3.416-15.633-1.913-21.604c-5.863-6.57-34.936,0.101-34.936,0.101
				s3.587,6.942,3.445,13.195C1722.014,1270.628,1718.849,1275.135,1718.849,1275.135z"/>
		</g>
		<g>
			<g>
				<path style="fill:#436E8E;" d="M1417.062,1300.495c-16.319,3.664-32.761-5.626-38.28-21.638
					c-3.641-10.561-8.005-23.309-12.555-36.823c-21.266-63.155-9.735-96.355,8.378-115.296
					c27.302-28.548,164.015-65.857,165.449-66.088l12.967,83.112l-6.483-41.556l6.494,41.554
					c0,19.987-123.337,26.918-115.631,64.368c1.659,8.068,3.292,17.854,5.97,29.448c1.842,7.976,3.765,15.618,5.585,22.512
					c4.518,17.112-5.962,34.586-23.006,38.411L1417.062,1300.495z M1429.694,1178.879L1429.694,1178.879L1429.694,1178.879z
					 M1434.645,1170.679L1434.645,1170.679L1434.645,1170.679z"/>
			</g>
		</g>
		<g>
			<g>
				<path style="fill:#436E8E;" d="M1516.112,1310.166c-25.986-32.395-22.589-149.571-9.899-222.24
					c8.28-47.418,109.836-49.009,108.63-11.648c-0.36,11.152-1.673,23.554-2.416,37.376c-3.507,65.226-25.724,116.257-19.593,123.32
					c8.75,10.083,84.085-1.347,116.796,2.562c9.347,1.117,16.805,8.434,18.234,17.876l2.66,17.565
					c1.549,10.231-6.547,16.527-16.071,20.232C1660.403,1316.234,1542.782,1343.413,1516.112,1310.166z M1590.619,1214.38
					L1590.619,1214.38L1590.619,1214.38z"/>
			</g>
		</g>
		<g>
			<path style="fill:#E28569;" d="M1585.39,902.352c0,0-14.823-28.531-78.754-15.467c-19.21,3.926-27.769,14.728-37.31,21.542
				c-14.771,10.55-15.811,18.976-9.93,35.09c13.287,36.404,30.294,89.613-6.902,144.643c0,0,154.823,42.82,158.282-12.536
				C1610.776,1075.624,1633.051,980.377,1585.39,902.352z"/>
		</g>
		<g>
			<path style="fill:#E28569;" d="M1617.025,927.637l-46.51-5.425c0,0-77.055,38.266-102.02,39.809
				c-24.965,1.544-44.984-37.736-44.984-37.736s22.841-24.491,73.582-35.397c7.447-1.602,14.844-3.346,22.267-4.256
				C1620.985,872.163,1617.025,927.637,1617.025,927.637z"/>
		</g>
		<g>
			<path style="fill:#F7B686;" d="M1513.805,877.116l-8.031-14.783l-2.338-4.305l-13.745-25.305l4.38,27.117l2.631,16.276
				l0.832,5.152c0.565,3.496,0.084,6.502-1.839,10.046c-0.778,1.437-4.013,9.417,4.125,11.199
				c10.139,2.222,23.656-9.194,28.581-18.841C1528.347,883.673,1517.041,884.094,1513.805,877.116z"/>
		</g>
		<g>
			<path style="fill:#2F1A31;" d="M1617.025,927.637c-0.347,1.307-1.955,2.224-4.528,2.751c-6.188,1.281-17.943,0.326-30.961-2.851
				c-10.011-2.449-18.723-5.715-24.391-8.892c-4.764-2.676-7.375-5.288-6.842-7.322c0.556-2.122,4.429-3.216,10.332-3.303
				c6.509-0.101,15.48,1.042,25.157,3.403c13.327,3.252,24.327,7.949,28.955,11.994
				C1616.519,924.949,1617.348,926.406,1617.025,927.637z"/>
		</g>
		<g>
			<g>
				<path style="fill:#56335B;" d="M1466.395,827.019c0,0-0.353,6.894,2.997,14.747c3.351,7.852,7.473-14.035,7.473-14.035
					L1466.395,827.019z"/>
			</g>
			<g>
				<path style="fill:#F7B686;" d="M1468.895,844.337c-1.172-16.292,8.67-30.3,21.982-31.286
					c13.313-0.986,25.054,11.421,26.227,27.713c1.172,16.292-8.669,30.3-21.982,31.286
					C1481.81,873.036,1470.067,860.629,1468.895,844.337z"/>
			</g>
			<g>
				<path style="fill:#2F1A31;" d="M1516.009,832.347l-11.703,1.193c-2.573,0.262-5.155-0.629-6.96-2.511
					c-3.104-3.236-6.319-4.56-16.925-1.915c-13.428,3.35-24.028-2.969-26.951-9.851c-2.983-7.022,2.932-13.445,10.439-11.371
					c7.509,2.075,2.848-5.892,9.199-8.171c11.869-4.259,16.1,4.818,26.037,2.414c13.03-3.152,38.573,2.043,32.195,27.803
					L1516.009,832.347z"/>
			</g>
			<g>
				<g>
					<path style="fill:#060633;" d="M1491.507,841.597c-0.139-0.053-0.253-0.169-0.298-0.325c-0.076-0.262,0.071-0.539,0.331-0.616
						c0.153-0.047,3.596-1.442,6.181,2.037c0.162,0.219,0.129,0.529-0.084,0.698c-0.213,0.17-0.478,0.091-0.688-0.085
						c-2.098-1.743-5.005-1.733-5.132-1.696C1491.712,841.64,1491.604,841.634,1491.507,841.597z"/>
				</g>
			</g>
			<g>
				<path style="fill:#060633;" d="M1494.857,847.409c-0.074,1.184-0.819,2.1-1.666,2.046c-0.848-0.055-1.474-1.058-1.4-2.242
					c0.073-1.185,0.819-2.101,1.666-2.047C1494.304,845.222,1494.931,846.225,1494.857,847.409z"/>
			</g>
			<g>
				<g>
					<path style="fill:#060633;" d="M1473.463,843.868c-0.115,0.004-0.231-0.062-0.31-0.189c-0.132-0.216-0.108-0.526,0.054-0.697
						c0.095-0.101,2.133-2.704,5.006-0.46c0.182,0.141,0.25,0.44,0.148,0.679c-0.102,0.237-0.314,0.266-0.516,0.184
						c-2.011-0.82-4.079,0.294-4.158,0.377C1473.621,843.83,1473.542,843.865,1473.463,843.868z"/>
				</g>
			</g>
			<g>
				<path style="fill:#060633;" d="M1478.853,847.943c0.376,1.123,0.03,2.259-0.772,2.535c-0.804,0.277-1.76-0.408-2.136-1.531
					c-0.377-1.124-0.03-2.259,0.772-2.536C1477.52,846.134,1478.476,846.819,1478.853,847.943z"/>
			</g>
			<g>
				<path style="fill:#56335B;" d="M1531.341,829.938c0,0-4.388,18.986-15.351,22.606c0,0,6.389-15.105-14.37-19.15
					C1501.62,833.394,1518.607,826.915,1531.341,829.938z"/>
			</g>
			<g>
				<path style="fill:#F7B686;" d="M1517.467,842.813c-2.085,2.052-5.239,2.184-7.046,0.293c-1.807-1.892-1.581-5.087,0.504-7.139
					c2.084-2.053,5.239-2.184,7.046-0.293S1519.552,840.762,1517.467,842.813z"/>
			</g>
			<g>
				<path style="fill:#56335B;" d="M1501.62,833.394c0,0,4.487,14.222,2.13,17.581c-2.357,3.359-21.374,8.575-31.077,6.932l0,0
					c1.748,9.371,9.911,16.259,19.302,15.906c3.106-0.117,6.213-0.764,9.187-1.957l0,0c6.064-2.433,11.645-6.355,13.034-12.821
					c0.423-1.968-4.127-12.575-4.127-12.575s-2.185-6.326,0.856-10.492C1510.925,835.968,1505.82,832.94,1501.62,833.394z"/>
			</g>
			<g>
				<path style="fill:#FFFFFF;" d="M1478.482,862.159c0,0,7.79,0.481,15.691-1.999c0,0,0.356,7.826-8.107,8.023
					C1481.144,868.3,1478.482,862.159,1478.482,862.159z"/>
			</g>
			<g>
				<path style="fill:#2F1A31;" d="M1464.935,806.481l-0.115-0.654c3.153-0.558,2.9-3.149,2.889-3.259l0.659-0.074
					C1468.372,802.526,1468.693,805.815,1464.935,806.481z"/>
			</g>
			<g>
				<path style="fill:#FFFFFF;" d="M1475.804,826.065c-0.038-0.003-3.945-0.328-8.068-1.581c-5.49-1.67-8.873-4.225-9.782-7.387
					c-0.637-2.217-0.55-3.806,0.266-4.859c1.283-1.659,4.084-1.587,6.555-1.521c0.368,0.009,0.728,0.019,1.071,0.021l-0.004,0.332
					c-0.346-0.002-0.707-0.012-1.076-0.022c-2.394-0.063-5.103-0.133-6.283,1.393c-0.746,0.965-0.814,2.457-0.209,4.564
					c2.126,7.4,17.404,8.717,17.559,8.729L1475.804,826.065z"/>
			</g>
			<g>
				<path style="fill:#FFFFFF;" d="M1495.321,805.479c-2.607,0-4.789-0.392-6.471-0.863c-3.827-1.072-5.908-2.731-5.995-2.803
					l0.209-0.258c0.021,0.017,2.127,1.693,5.893,2.745c3.474,0.971,9.115,1.594,16.253-0.951l0.111,0.313
					C1501.543,805.009,1498.177,805.479,1495.321,805.479z"/>
			</g>
		</g>
		<g>
			<path style="fill:#2F1A31;" d="M1497.363,1171.301c-0.005,0-0.011,0-0.018-0.001c-0.344-0.01-0.615-0.296-0.605-0.641
				l1.012-34.96c-1.003-7.038-7.871-11.144-7.941-11.185c-0.297-0.174-0.396-0.556-0.222-0.854c0.173-0.296,0.554-0.396,0.852-0.223
				c0.306,0.179,7.493,4.463,8.553,12.141c0.006,0.034,0.008,0.069,0.006,0.104l-1.013,35.013
				C1497.978,1171.033,1497.7,1171.301,1497.363,1171.301z"/>
		</g>
		<g>
			<path style="fill:#436E8E;" d="M1464.877,948.389c0,0,49.825-17.665,63.523-4.871c13.698,12.793,28.151,52.758,55.264,57.58
				c27.112,4.822,37.223,9.501,37.223,9.501s0.208,108.22-17.016,165.118l-109.365-60.531l-55.714-21.926
				c0,0,21.842-16.83,23.492-35.968C1463.934,1038.155,1446.362,953.812,1464.877,948.389z"/>
		</g>
		<g>
			<g>
				<g>
					<path style="fill:#F7B686;" d="M1406.078,1021.138c0,0-15.219-12.292-26.438-10.325c-11.22,1.967-24.085,13.088-16.875,13.367
						c7.209,0.28,16.519-1.945,16.519-1.945s-19.669,5.704-16.362,9.795c3.306,4.09,20.364-1.038,20.364-1.038
						s-22.871,8.681-18.515,11.519c4.356,2.839,21.685-3.881,21.685-3.881s-20.961,8.938-15.825,12.115
						c5.137,3.176,17.275-7.501,20.582-3.41c3.306,4.09,17.803,19.205,30.129,11.266L1406.078,1021.138z"/>
				</g>
			</g>
			<g>
				<path style="fill:#DD8964;" d="M1379.461,1022.617l-0.354-0.769c0.226-0.104,5.597-2.542,8.796-0.565l-0.445,0.721
					C1384.64,1020.258,1379.513,1022.593,1379.461,1022.617z"/>
			</g>
			<g>
				<path style="fill:#DD8964;" d="M1383.472,1031.372l-0.37-0.762c0.218-0.106,5.381-2.563,10.357-0.72l-0.292,0.794
					C1388.522,1028.97,1383.521,1031.348,1383.472,1031.372z"/>
			</g>
			<g>
				<path style="fill:#DD8964;" d="M1386.634,1039.014l-0.355-0.769c0.268-0.126,6.611-3.021,9.847-0.617l-0.505,0.679
					C1392.787,1036.202,1386.696,1038.984,1386.634,1039.014z"/>
			</g>
		</g>
		<g>
			<g>
				<path style="fill:#F7B686;" d="M1614.748,923.418c-0.52,1.833-1.25,4.182-2.251,6.97c-4.405,12.233-14.008,32.868-33.721,54.507
					c-47.814,52.474-118.312,70.068-169.046,75.582l-3.65-39.335c60.882-6.632,98.165-29.891,128.903-62.32
					c11.595-12.245,18.624-29.413,22.162-40.176c1.98-5.979,2.884-9.985,2.896-10.062c0,0,0.198-0.213,0.595-0.563
					c6.509-0.101,15.48,1.042,25.157,3.403C1599.12,914.676,1610.12,919.373,1614.748,923.418z"/>
			</g>
		</g>
		<g style="opacity:0.5;">
			<path style="fill:#E08B65;" d="M1524.885,1012.991c-0.183,0-0.364-0.007-0.544-0.018c-1.794-0.119-3.284-0.827-4.312-2.046
				c-2.777-3.3-1.302-9.205,3.361-13.443c2.772-2.521,6.154-3.905,9.07-3.715c1.794,0.12,3.283,0.828,4.311,2.047
				c2.777,3.3,1.302,9.204-3.361,13.443C1530.809,1011.623,1527.664,1012.991,1524.885,1012.991z M1531.901,995.829
				c-2.264,0-4.89,1.171-7.112,3.192c-3.705,3.368-5.156,8.207-3.169,10.566c0.826,0.981,2.011,1.255,2.859,1.312
				c2.357,0.151,5.171-1.031,7.532-3.179c3.705-3.367,5.156-8.206,3.169-10.566c-0.825-0.981-2.011-1.255-2.858-1.312
				C1532.184,995.834,1532.043,995.829,1531.901,995.829z"/>
		</g>
		<g>
			<path style="fill:#436E8E;" d="M1482.96,892.454c0,0-18.252,32.667-16.576,62.81l11.014-0.575c0,0,3.226-45.21,15.116-64.765
				C1492.514,889.924,1487.24,888.255,1482.96,892.454z"/>
		</g>
		<g>
			<path style="fill:#436E8E;" d="M1516.48,943.518c-0.368-1.65,6.129-47.558,20.05-60.713c0,0,6.497-2.534,9.59,0.006
				c0,0-18.115,40.846-17.72,63.766L1516.48,943.518z"/>
		</g>
		<g>
			<path style="fill:#2F1A31;" d="M1468.496,950.815c0-2.341,1.869-4.239,4.177-4.239c2.307,0,3.646,1.961,4.176,4.239
				c0.728,3.131-1.869,4.239-4.176,4.239C1470.365,955.055,1468.496,953.156,1468.496,950.815z"/>
		</g>
		<g>
			<path style="fill:#2F1A31;" d="M1516.466,945.163c0-2.34,1.87-4.238,4.177-4.238c2.306,0,3.647,1.96,4.176,4.238
				c0.727,3.132-1.87,4.239-4.176,4.239C1518.336,949.402,1516.466,947.505,1516.466,945.163z"/>
		</g>
	</g>
	<g>
		<g>
			<path style="fill:#BED5DC;" d="M1134.104,1337.938c0,0-24.595-25.077-16.132-39.358c8.463-14.282,22.745,30.679,22.745,30.679
				s-7.405-53.164,7.934-54.088c15.34-0.923,0,54.088,0,54.088s5.687-12.827,11.24-13.62c5.555-0.793,3.968,10.877-5.95,22.3
				H1134.104z"/>
		</g>
		<g>
			<path style="fill:#42428E;" d="M1135.867,1338.566c-0.071-0.071-7.109-7.284-12.868-16.396
				c-7.858-12.433-9.73-22.302-5.563-29.335c1.555-2.624,3.422-3.835,5.551-3.589c4.244,0.484,9.228,7.183,14.812,19.911
				c1.702,3.877,3.21,7.752,4.391,10.958c-1.356-13.917-2.93-41.641,4.732-50.996c1.664-2.032,3.693-3.134,6.032-3.274
				c2.271-0.142,4.15,0.679,5.563,2.428c6.888,8.526,0.661,38.655-2.761,52.751c2.552-4.134,6.174-8.742,9.873-9.271
				c1.744-0.244,3.144,0.404,3.928,1.84c2.231,4.098-0.85,14.545-9.87,24.934l-1.359-1.181c8.868-10.213,11.301-19.857,9.647-22.892
				c-0.419-0.771-1.083-1.067-2.091-0.919c-4.763,0.681-10.316,11.003-12.054,14.922l-1.69-0.605
				c0.033-0.122,3.396-12.24,5.652-25.508c2.95-17.35,2.717-28.74-0.676-32.94c-1.04-1.287-2.366-1.873-4.056-1.761
				c-1.843,0.11-3.396,0.968-4.747,2.618c-9.676,11.815-3.479,57.251-3.414,57.708l-1.749,0.396
				c-3.21-10.104-13.125-36.504-20.367-37.33c-1.385-0.157-2.623,0.732-3.8,2.72c-9.141,15.425,17.893,43.272,18.167,43.552
				L1135.867,1338.566z"/>
		</g>
	</g>
</g>
</svg>
